<?xml version="1.0" standalone="no"?>
<!DOCTYPE svg PUBLIC "-//W3C//DTD SVG 20010904//EN"
 "http://www.w3.org/TR/2001/REC-SVG-20010904/DTD/svg10.dtd">
<svg version="1.0" xmlns="http://www.w3.org/2000/svg"
 width="980.000000pt" height="980.000000pt" viewBox="0 0 980.000000 980.000000"
 preserveAspectRatio="xMidYMid meet">
<metadata>
Created by potrace 1.11, written by Peter Selinger 2001-2013
</metadata>
<g transform="translate(0.000000,980.000000) scale(0.100000,-0.100000)"
fill="#000000" stroke="none">
<path d="M4589 9796 c-2 -2 -35 -6 -72 -10 -72 -7 -120 -13 -177 -22 -19 -3
-46 -8 -60 -10 -14 -2 -34 -6 -46 -9 -12 -3 -39 -7 -60 -11 -107 -16 -474
-120 -559 -158 -16 -8 -41 -17 -55 -21 -14 -3 -38 -12 -55 -20 -16 -7 -64 -27
-105 -45 -134 -58 -319 -153 -430 -220 -93 -56 -224 -142 -247 -163 -13 -11
-23 -17 -23 -14 0 6 -34 -20 -66 -50 -7 -7 -15 -13 -18 -13 -6 0 -37 -24 -65
-50 -9 -8 -30 -25 -46 -38 -143 -110 -396 -366 -535 -542 -97 -122 -140 -180
-140 -190 0 -5 -4 -10 -10 -10 -5 0 -10 -6 -10 -14 0 -8 -4 -16 -8 -18 -5 -1
-27 -32 -50 -68 -23 -36 -45 -70 -49 -76 -10 -12 -21 -33 -101 -174 -42 -75
-52 -94 -52 -107 0 -7 -3 -13 -8 -13 -4 0 -14 -15 -21 -32 -8 -18 -30 -67 -49
-108 -36 -79 -55 -122 -57 -130 0 -3 -6 -15 -13 -27 -7 -13 -10 -23 -6 -23 3
0 2 -6 -4 -12 -16 -21 -124 -345 -138 -418 -3 -14 -12 -49 -21 -78 -8 -30 -16
-64 -18 -75 -2 -12 -8 -47 -15 -77 -38 -185 -53 -380 -54 -685 0 -194 8 -387
18 -460 2 -17 7 -50 10 -75 14 -120 16 -129 36 -215 7 -27 14 -63 16 -80 3
-16 11 -46 19 -66 8 -20 11 -39 8 -43 -3 -3 -1 -12 6 -20 6 -8 11 -18 9 -22
-1 -5 1 -18 4 -29 4 -11 23 -74 44 -140 20 -66 41 -126 46 -132 6 -7 8 -13 5
-13 -8 0 79 -234 132 -355 41 -94 172 -357 192 -386 10 -14 16 -29 12 -33 -3
-3 -1 -6 5 -6 7 0 12 -4 12 -10 0 -35 341 -555 483 -735 11 -14 127 -165 157
-205 26 -34 51 -65 72 -90 7 -8 31 -37 53 -65 22 -28 47 -59 57 -70 9 -11 44
-54 77 -95 34 -41 74 -89 89 -105 15 -17 47 -55 72 -85 25 -30 54 -64 65 -76
11 -11 36 -41 57 -65 70 -85 103 -123 136 -157 17 -18 32 -36 32 -38 0 -3 10
-15 23 -28 12 -13 49 -54 82 -91 33 -38 67 -76 75 -85 8 -8 42 -47 75 -85 33
-38 67 -76 75 -85 8 -9 44 -49 80 -90 36 -40 83 -93 105 -118 22 -25 48 -54
58 -66 22 -25 89 -103 138 -160 60 -69 243 -282 259 -302 8 -11 47 -57 85
-104 39 -47 79 -96 90 -109 11 -13 28 -33 38 -43 9 -10 17 -22 17 -26 0 -4 9
-14 20 -22 11 -8 20 -20 20 -26 0 -7 4 -14 8 -16 7 -2 98 -120 202 -258 14
-18 31 -39 38 -46 6 -7 12 -15 12 -19 0 -3 21 -35 48 -70 26 -35 79 -109 117
-166 86 -126 123 -166 155 -174 34 -8 54 10 132 125 61 91 99 145 125 179 6 9
67 90 135 181 104 138 242 317 287 372 84 103 111 139 111 148 0 6 5 8 10 5 6
-3 10 -3 10 2 0 4 10 20 23 35 12 14 36 43 54 65 17 21 39 48 50 59 10 12 36
43 58 70 22 26 54 62 70 80 17 18 44 50 62 71 18 21 42 50 55 64 13 14 48 54
78 89 30 35 75 85 100 113 25 27 53 59 63 71 9 11 28 32 40 46 13 14 54 61 92
105 38 44 85 97 105 119 56 62 62 68 130 146 103 118 123 141 149 169 12 14
39 46 60 70 20 24 45 53 56 65 11 12 43 48 70 81 28 32 55 63 60 69 6 6 43 52
84 101 41 50 80 95 85 100 6 6 29 33 51 60 22 28 44 55 50 62 5 7 15 18 20 25
6 7 28 36 51 63 60 73 309 406 322 432 7 12 18 27 25 35 7 7 28 38 47 68 19
30 38 57 42 58 5 2 8 10 8 17 0 7 4 15 8 17 11 4 92 135 92 148 0 5 3 10 8 10
4 0 12 10 18 23 6 12 36 65 66 118 87 151 237 454 263 529 1 3 7 19 14 35 27
63 94 243 122 325 56 171 126 437 121 462 -1 4 2 18 7 31 5 13 12 40 15 60 14
88 17 104 20 132 3 17 7 46 11 66 3 19 7 55 10 80 2 24 4 44 5 44 5 0 11 169
12 325 1 165 -4 294 -16 400 -2 19 -7 60 -11 90 -6 57 -12 95 -15 95 -1 0 -3
11 -4 25 -6 56 -31 185 -46 238 -2 4 -4 12 -5 17 -1 6 -8 33 -14 60 -7 28 -14
57 -16 65 -2 8 -13 47 -25 85 -11 39 -22 77 -25 85 -36 127 -191 503 -235 570
-6 8 -13 22 -17 30 -13 29 -107 195 -114 200 -3 3 -9 15 -13 28 -4 12 -12 22
-17 22 -5 0 -9 5 -9 10 0 10 -95 158 -109 170 -3 3 -22 28 -41 55 -19 28 -40
57 -47 65 -6 8 -28 35 -48 60 -201 249 -446 485 -695 667 -36 27 -66 51 -68
55 -2 5 -8 8 -14 8 -6 0 -27 14 -48 30 -21 17 -43 30 -49 30 -6 0 -11 3 -11 8
0 4 -9 12 -19 17 -11 6 -71 40 -133 76 -136 80 -402 214 -443 224 -5 1 -21 7
-35 12 -22 10 -54 22 -125 49 -11 4 -24 8 -30 10 -5 1 -36 12 -67 23 -32 12
-66 22 -75 24 -10 1 -23 6 -29 10 -12 7 -307 81 -365 91 -19 3 -52 9 -74 12
-22 3 -51 8 -65 10 -36 7 -75 12 -160 19 -41 4 -91 9 -110 11 -42 6 -616 15
-621 10z m86 -1516 c16 -13 38 -57 66 -130 26 -70 79 -147 145 -213 38 -37 71
-67 75 -67 3 0 22 -13 40 -30 19 -16 40 -30 47 -30 7 0 15 -7 18 -15 4 -8 10
-15 16 -15 5 0 24 -11 42 -25 18 -14 38 -25 44 -25 7 0 12 -4 12 -10 0 -5 11
-12 25 -16 14 -3 25 -10 25 -14 0 -5 30 -25 66 -45 37 -21 86 -50 109 -66 24
-16 48 -29 54 -29 6 0 11 -4 11 -9 0 -5 8 -11 18 -14 18 -6 74 -38 82 -48 3
-3 34 -22 70 -43 68 -38 97 -56 114 -69 6 -4 62 -41 125 -83 62 -41 141 -96
175 -122 67 -51 229 -210 261 -256 11 -16 29 -40 41 -55 33 -42 89 -160 109
-231 22 -79 27 -234 10 -316 -26 -123 -96 -285 -162 -371 -13 -18 -20 -33 -16
-33 4 0 3 -4 -2 -8 -6 -4 -34 -39 -64 -79 -30 -40 -58 -70 -62 -68 -4 3 -3 20
1 39 11 50 4 212 -13 286 -62 273 -192 444 -541 713 -55 43 -109 85 -119 93
-9 8 -20 14 -23 14 -2 0 -12 6 -20 13 -34 28 -41 33 -84 62 -25 16 -47 32 -50
35 -3 3 -32 24 -66 47 l-60 42 -3 -257 c-1 -141 -4 -472 -6 -734 -2 -262 -6
-481 -9 -487 -4 -5 -2 -12 4 -16 6 -4 8 -10 5 -15 -3 -5 -8 -161 -10 -347 -10
-661 -13 -704 -48 -788 -40 -96 -162 -280 -194 -292 -7 -3 -13 -11 -13 -19 0
-8 -6 -14 -14 -14 -8 0 -16 -7 -20 -15 -9 -24 -185 -148 -266 -187 -134 -65
-286 -106 -412 -112 -21 -1 -40 -5 -44 -9 -4 -3 -12 -3 -18 0 -6 4 -38 8 -71
8 -204 5 -400 72 -539 185 -39 31 -106 105 -112 122 -3 10 -9 18 -13 18 -12 0
-65 115 -85 184 -25 85 -23 300 2 341 4 6 8 18 9 27 7 44 88 194 140 259 47
59 111 124 172 173 71 57 201 141 201 128 0 -4 4 -2 8 3 10 15 124 62 192 80
62 17 111 27 145 31 22 2 56 6 75 8 19 3 95 6 168 7 l132 1 0 1056 c0 1120 7
1765 19 1823 0 3 10 15 21 26 21 24 39 24 65 3z"/>
</g>
</svg>
