<svg width="752" height="980" viewBox="0 0 752 980" fill="none" xmlns="http://www.w3.org/2000/svg">
<path d="M338.46 1.22003C260.15 9.40003 184.49 42.73 126.22 94.46C63.8601 149.87 20.9201 225.93 5.17008 309.15C-1.36992 344.32 -1.36992 404.43 5.37008 440.83C11.1001 472.32 26.0201 518.32 40.1301 547.97C71.6201 614.83 114.35 672.7 220.27 791.5C293.27 873.29 330.89 919.7 361.35 964.89C374.44 984.11 377.09 984.52 386.91 968.77C397.13 952.62 439.25 897.41 461.95 870.22C473.81 856.11 505.91 819.31 533.31 788.43C603.65 709.1 628.8 678.83 657.42 638.96C728.17 540 760.47 434.9 749.64 336.96C731.24 168.27 605.49 33.73 439.25 5.09998C411.87 0.409976 363.82 -1.42997 338.46 1.22003ZM358.91 161.73C366.27 183.2 376.29 191.99 434.16 226.75C479.35 253.74 493.05 263.35 509 279.71C539.06 310.18 542.94 344.32 520.86 381.54C516.36 388.9 510.43 397.49 507.57 400.96L502.25 407.09L503.48 397.48C505.11 384.19 501.23 364.76 493.87 350.04C485.49 333.27 464.63 313.03 431.71 289.72L405.33 271.11L404.3 397.28C403.48 480.5 402.46 525.69 401.03 529.78C384.67 574.76 339.28 603.18 289.59 599.5C218.02 594.39 192.06 525.69 242.77 475.79C264.65 454.12 292.87 442.87 324.97 442.87H342.96V300.56C342.96 203.64 343.57 157.02 345.21 154.36C349.1 147.01 355.23 150.28 358.91 161.73Z" fill="url(#paint0_linear)"/>
<defs>
<linearGradient id="paint0_linear" x1="375.989" y1="979.993" x2="375.989" y2="0.000976562" gradientUnits="userSpaceOnUse">
<stop stop-color="#DDD6F3"/>
<stop offset="1" stop-color="#FAACA8"/>
</linearGradient>
</defs>
</svg>
