<svg width="1024" height="1024" viewBox="0 0 1024 1024" fill="none" xmlns="http://www.w3.org/2000/svg">
<g id="svg">
<g id="Mask Group">
<mask id="mask0" mask-type="alpha" maskUnits="userSpaceOnUse" x="0" y="0" width="1024" height="1024">
<ellipse id="Ellipse 1" rx="511.53" ry="511.132" transform="matrix(0.999999 -0.00169712 0.000922523 1 512 512)" fill="url(#paint0_linear)"/>
</mask>
<g mask="url(#mask0)">
<g id="SVG">
<g id="Background">
<ellipse id="Ellipse 1_2" rx="511.53" ry="511.132" transform="matrix(0.999999 -0.00169604 0.00092311 1 513.02 514.227)" fill="url(#paint1_linear)"/>
</g>
<path id="Sun" d="M829.449 653.111C829.449 749.325 749.885 827.498 651.518 827.498C553.151 827.498 473.586 749.325 473.586 653.111C473.586 556.897 553.151 478.724 651.518 478.724C749.885 478.724 829.449 556.897 829.449 653.111Z" fill="white" stroke="#DEE3F7" stroke-width="10.6157"/>
<g id="Mountain">
<path id="Vector" d="M377.142 834.589L448.477 812.417L904.246 841.109L957.088 878.933C957.088 878.933 1099.76 997.631 1202.81 1044.58V1170.41H118.212L105.522 1079.28C105.522 1079.28 289.194 923.15 377.142 834.589Z" fill="#5870A7"/>
<path id="Vector_2" d="M673.814 898.244L661.576 991.201C661.367 992.78 660.594 994.234 659.397 995.3C658.199 996.367 656.655 996.976 655.043 997.018C653.431 997.061 651.856 996.534 650.603 995.532C649.349 994.53 648.499 993.119 648.206 991.553L630.752 898.232L673.814 898.244Z" fill="#CDE4FF"/>
<path id="Vector_3" d="M586.683 632.416H704.397C710.709 632.417 716.947 633.75 722.694 636.327C728.441 638.903 733.563 642.664 737.716 647.356C772.047 686.142 867.975 793.068 957.083 878.932C938.511 872.647 918.783 870.397 899.249 872.337C879.715 874.277 860.836 880.36 843.905 890.172C827.475 899.387 808.254 902.511 789.699 898.984C779.415 897.107 769.494 893.641 760.302 888.715C751.126 883.824 740.996 880.927 730.593 880.217C720.19 879.507 709.753 881 699.982 884.597C690.667 887.946 681.86 892.537 673.806 898.243C653.96 912.68 629.586 919.731 604.987 918.152C585.946 916.664 567.704 909.957 552.315 898.788C542.543 891.972 531.325 887.447 519.514 885.555C490.02 880.59 459.693 884.65 432.603 897.191C432.603 897.191 435.248 834.568 377.121 834.568C377.121 834.568 484.118 734.669 551.888 649.079C556.024 643.874 561.308 639.668 567.337 636.781C573.366 633.893 579.982 632.401 586.683 632.416Z" fill="url(#paint2_linear)"/>
<path id="Vector_4" d="M957.088 878.933C867.98 793.052 772.052 686.15 737.721 647.356C733.566 642.665 728.443 638.906 722.696 636.33C716.948 633.755 710.709 632.423 704.397 632.425H586.684C584.826 632.434 582.971 632.557 581.128 632.793L692.449 655.03C703.763 657.286 713.852 663.545 720.819 672.631C775.313 742.882 834.218 809.689 897.186 872.658C917.376 870.09 937.894 872.24 957.088 878.933Z" fill="#C4E1FE"/>
<path id="Vector_5" d="M432.624 897.192L501.948 814.422C503.035 813.126 504.549 812.248 506.225 811.941C507.901 811.634 509.633 811.919 511.118 812.745C512.603 813.57 513.747 814.885 514.351 816.459C514.954 818.033 514.978 819.766 514.419 821.356L480.175 918.434L432.624 897.192Z" fill="#4673AA"/>
<path id="Vector_6" d="M838.117 893.144L785.628 796.761C785.023 795.651 784.849 794.362 785.137 793.134C785.425 791.907 786.157 790.825 787.195 790.092C788.232 789.358 789.505 789.023 790.775 789.149C792.045 789.275 793.225 789.854 794.094 790.777L900.975 904.191L838.117 893.144Z" fill="#4673AA"/>
</g>
<g id="sakura_branch">
<path id="Vector_7" d="M337.093 496.219C337.093 496.219 381.799 512.402 392.809 468.275C392.809 468.275 358.846 451.628 337.093 496.219Z" fill="#F090CC"/>
<path id="Vector_8" d="M592.021 205.203C591.078 205.203 590.145 205.004 589.274 204.616C588.404 204.228 587.613 203.66 586.947 202.943C586.605 202.59 586.303 202.195 586.048 201.765C585.781 201.348 585.558 200.901 585.382 200.432C585.201 199.971 585.063 199.492 584.97 199.002C584.877 198.5 584.828 197.989 584.824 197.476C584.825 196.334 585.062 195.206 585.517 194.174C585.972 193.142 586.635 192.231 587.458 191.507C588.28 190.782 589.242 190.263 590.274 189.986C591.306 189.709 592.382 189.681 593.426 189.904C593.889 190.002 594.341 190.151 594.775 190.35C595.212 190.537 595.628 190.776 596.015 191.063C596.416 191.336 596.785 191.66 597.114 192.029C598.115 193.11 598.796 194.486 599.071 195.983C599.345 197.48 599.201 199.03 598.657 200.439C598.112 201.848 597.191 203.052 596.01 203.9C594.829 204.748 593.441 205.201 592.021 205.203Z" fill="#F090CC"/>
<path id="Vector_9" d="M544.559 364.274C543.24 364.274 541.933 363.995 540.715 363.452C539.496 362.909 538.389 362.113 537.457 361.11C536.978 360.616 536.555 360.063 536.198 359.461C535.825 358.877 535.513 358.251 535.266 357.595C535.012 356.95 534.819 356.28 534.689 355.594C534.559 354.89 534.491 354.175 534.485 353.457C534.486 351.858 534.818 350.28 535.455 348.835C536.093 347.39 537.021 346.114 538.172 345.101C539.324 344.087 540.67 343.36 542.115 342.972C543.559 342.584 545.066 342.544 546.526 342.857C547.174 342.994 547.807 343.203 548.415 343.481C549.027 343.743 549.609 344.078 550.15 344.479C550.712 344.862 551.229 345.316 551.689 345.831C553.091 347.346 554.044 349.272 554.429 351.367C554.813 353.462 554.611 355.632 553.849 357.604C553.086 359.576 551.797 361.262 550.144 362.449C548.491 363.636 546.548 364.271 544.559 364.274Z" fill="#F090CC"/>
<path id="Vector_10" d="M689.821 288.596C688.501 288.596 687.195 288.316 685.976 287.773C684.757 287.231 683.65 286.435 682.718 285.432C682.239 284.938 681.816 284.384 681.459 283.782C681.086 283.198 680.774 282.573 680.527 281.916C680.273 281.272 680.08 280.601 679.951 279.915C679.82 279.211 679.752 278.496 679.747 277.779C679.748 276.18 680.079 274.601 680.716 273.156C681.354 271.711 682.282 270.436 683.433 269.422C684.585 268.408 685.931 267.681 687.376 267.293C688.82 266.905 690.327 266.866 691.787 267.178C692.436 267.315 693.069 267.525 693.676 267.803C694.288 268.065 694.87 268.399 695.412 268.801C695.973 269.183 696.49 269.637 696.95 270.153C698.352 271.667 699.306 273.593 699.69 275.688C700.074 277.783 699.872 279.954 699.11 281.926C698.348 283.898 697.059 285.584 695.406 286.771C693.752 287.958 691.809 288.593 689.821 288.596Z" fill="#F090CC"/>
<path id="Vector_11" d="M493.422 62.3612C493.422 62.3612 513.646 38.562 479.115 15.9916C479.119 15.9927 461.883 39.4717 493.422 62.3612Z" fill="#F090CC"/>
<path id="Vector 4" d="M433.089 393.608C433.089 393.608 330.278 408.68 328.722 409.237C327.166 409.794 400.925 411.725 456.101 405.962L415.111 440.709L369.088 497.849L430.213 449.975L481.27 402.101L509.316 377.392L535.923 349.595L601.362 324.886L691.252 308.67L781.86 288.594C800.431 262.123 835.075 243.037 847.3 243.037C859.525 243.037 947.976 229.138 943.661 234.543C939.347 239.948 825.007 375.076 825.007 375.076C825.007 375.076 972.426 238.404 976.022 234.543C979.617 230.683 1006.65 215.36 1044.34 202.113V165.821C1041.3 161.265 971.111 202.921 964.516 206.746C957.92 210.57 837.951 206.746 837.951 206.746L764.602 247.67C741.025 238.89 738.306 233.761 720.736 225.277C677.776 204.536 640.699 216.077 601.362 206.746L497.091 129.53C522.71 153.751 540.405 167.866 560.373 190.53C572.657 204.722 582.839 212.659 598.486 224.505C612.6 231.779 630.846 238.404 630.846 238.404C630.846 238.404 684.297 243.829 703.477 246.898C722.972 253.966 724.69 261.42 732.961 273.923C711.447 280.383 675.431 283.189 675.431 283.189C675.431 283.189 593.311 294.816 586.98 298.632C580.649 302.448 525.191 321.74 516.507 332.607C507.822 343.475 471.814 377.032 433.089 393.608Z" fill="#31153B"/>
<g id="pedal_3">
<path id="Vector_12" d="M360.192 474.522C360.192 474.522 372.287 468.184 382.537 477.547C382.537 477.547 378.873 462.047 393.067 453.918C393.067 453.918 401.415 465.868 396.313 477.381C396.313 477.381 407.221 471.38 416 479.283C416 479.283 413.963 491.628 398.851 492.174C398.851 492.174 408.549 504.448 404.7 516.53C404.7 516.53 394.158 514.997 387.115 503.186C387.115 503.186 383.576 514.595 372.271 515.764C372.271 515.764 365.202 500.752 378.073 491.124C378.073 491.127 362.063 492.408 360.192 474.522Z" fill="#FFDEF0"/>
<path id="Vector_13" d="M393.32 483.001L390.993 483.323L391.1 481.643C391.13 481.257 391.087 480.869 390.976 480.501C390.865 480.132 390.686 479.792 390.451 479.498C390.216 479.205 389.929 478.964 389.607 478.791C389.285 478.618 388.934 478.514 388.574 478.488C388.215 478.461 387.854 478.511 387.512 478.636C387.171 478.76 386.856 478.956 386.586 479.212C386.315 479.468 386.095 479.779 385.937 480.127C385.78 480.475 385.688 480.854 385.668 481.24L385.572 482.738L383.574 482.04C382.887 481.8 382.14 481.863 381.496 482.215C380.853 482.566 380.365 483.178 380.142 483.915C379.918 484.653 379.977 485.455 380.304 486.146C380.632 486.837 381.202 487.36 381.888 487.6L383.904 488.305L382.73 490.337C382.542 490.663 382.415 491.026 382.357 491.405C382.299 491.784 382.311 492.171 382.393 492.545C382.475 492.919 382.624 493.272 382.833 493.584C383.041 493.895 383.305 494.16 383.609 494.362C383.913 494.565 384.251 494.701 384.604 494.763C384.957 494.825 385.317 494.812 385.665 494.724C386.014 494.637 386.342 494.476 386.633 494.252C386.923 494.028 387.169 493.745 387.358 493.419L387.718 492.798L388.388 494.329C388.538 494.68 388.751 494.995 389.015 495.257C389.28 495.519 389.589 495.723 389.927 495.855C390.265 495.988 390.624 496.048 390.983 496.031C391.343 496.014 391.695 495.92 392.021 495.756C392.346 495.592 392.638 495.36 392.88 495.074C393.121 494.788 393.308 494.453 393.428 494.089C393.549 493.725 393.601 493.339 393.582 492.954C393.563 492.568 393.472 492.19 393.316 491.842L392.1 489.062L394.017 488.797C394.099 488.786 394.181 488.77 394.261 488.751C394.943 488.586 395.541 488.145 395.929 487.52C396.316 486.895 396.465 486.133 396.345 485.393C396.224 484.653 395.842 483.992 395.279 483.546C394.716 483.1 394.015 482.904 393.321 482.998L393.32 483.001Z" fill="#A75174"/>
</g>
<g id="pedal_3_2">
<path id="Vector_14" d="M695.361 238.009C695.361 238.009 724.885 238.277 736.473 267.432C736.473 267.432 743.408 233.151 778.685 232.11C778.685 232.11 784.18 264.345 763.67 281.586C763.67 281.586 790.555 281.268 800.586 306.01C800.586 306.01 785.332 328.107 755.167 313.295C755.167 313.295 763.017 347.585 744.447 367.259C744.447 367.259 725.147 353.169 722.087 322.58C722.087 322.58 704.739 341.259 681.479 331.67C681.479 331.67 681.285 294.769 715.331 289.395C715.33 289.401 682.729 275.089 695.361 238.009Z" fill="#FFDEF0"/>
<path id="Vector_15" d="M752.679 289.478L747.817 287.664L749.56 284.479C749.969 283.752 750.24 282.946 750.357 282.106C750.473 281.266 750.434 280.41 750.24 279.587C750.046 278.764 749.702 277.99 749.227 277.311C748.753 276.632 748.158 276.06 747.476 275.63C746.794 275.2 746.04 274.919 745.256 274.804C744.473 274.69 743.676 274.743 742.912 274.962C742.148 275.18 741.432 275.559 740.805 276.077C740.179 276.595 739.654 277.242 739.262 277.979L737.707 280.82L734.421 277.349C733.291 276.156 731.767 275.494 730.183 275.508C728.599 275.522 727.085 276.211 725.974 277.423C724.863 278.636 724.246 280.273 724.259 281.974C724.272 283.675 724.914 285.3 726.043 286.493L729.359 289.995L725.201 292.75C724.534 293.193 723.954 293.772 723.495 294.455C723.036 295.138 722.707 295.912 722.527 296.731C722.346 297.551 722.318 298.401 722.443 299.232C722.568 300.064 722.845 300.86 723.257 301.577C723.669 302.294 724.209 302.916 724.845 303.409C725.481 303.902 726.201 304.255 726.965 304.449C727.728 304.643 728.519 304.673 729.294 304.539C730.068 304.404 730.81 304.107 731.477 303.665L732.75 302.824L732.67 306.534C732.645 307.38 732.775 308.224 733.055 309.016C733.335 309.809 733.758 310.533 734.3 311.149C734.842 311.765 735.493 312.259 736.214 312.603C736.935 312.947 737.712 313.134 738.501 313.154C739.29 313.174 740.074 313.025 740.809 312.718C741.545 312.41 742.216 311.949 742.784 311.361C743.352 310.773 743.806 310.071 744.12 309.293C744.434 308.516 744.601 307.68 744.612 306.832L744.759 300.097L748.763 301.59C748.936 301.654 749.111 301.709 749.284 301.756C750.775 302.149 752.349 301.912 753.681 301.092C755.012 300.273 755.999 298.934 756.436 297.354C756.873 295.775 756.727 294.075 756.028 292.608C755.329 291.14 754.131 290.018 752.683 289.474L752.679 289.478Z" fill="#A75174"/>
</g>
<g id="pedal_3_3">
<path id="Vector_16" d="M563.732 317.557C563.732 317.557 581.7 308.865 596.291 323.418C596.291 323.418 591.598 300.137 612.714 288.91C612.714 288.91 624.411 307.195 616.452 324.011C616.452 324.011 632.668 315.748 645.17 328.039C645.17 328.039 641.657 346.28 619.527 346.172C619.527 346.172 633.185 365.021 627.034 382.759C627.034 382.759 611.677 379.836 601.883 361.838C601.883 361.838 596.214 378.594 579.625 379.643C579.625 379.643 569.93 356.881 589.175 343.343C589.176 343.347 565.698 344.278 563.732 317.557Z" fill="#FFDEF0"/>
<path id="Vector_17" d="M611.832 332.19L608.413 332.527L608.643 330.034C608.703 329.462 608.658 328.882 608.511 328.328C608.363 327.774 608.117 327.256 607.786 326.805C607.455 326.354 607.045 325.979 606.582 325.701C606.118 325.424 605.608 325.249 605.084 325.188C604.559 325.126 604.028 325.179 603.524 325.343C603.019 325.507 602.55 325.779 602.143 326.143C601.737 326.508 601.401 326.957 601.156 327.466C600.91 327.974 600.76 328.531 600.714 329.105L600.508 331.328L597.615 330.167C596.621 329.768 595.525 329.816 594.568 330.3C593.612 330.784 592.873 331.664 592.514 332.748C592.155 333.831 592.206 335.028 592.655 336.076C593.105 337.124 593.916 337.937 594.91 338.336L597.829 339.507L596.023 342.458C595.734 342.932 595.533 343.464 595.432 344.024C595.331 344.584 595.332 345.161 595.435 345.722C595.539 346.283 595.742 346.817 596.034 347.294C596.325 347.77 596.7 348.18 597.136 348.5C597.572 348.819 598.06 349.042 598.574 349.156C599.087 349.27 599.616 349.272 600.129 349.163C600.642 349.054 601.129 348.836 601.564 348.52C601.998 348.205 602.371 347.798 602.661 347.324L603.214 346.423L604.129 348.741C604.333 349.272 604.631 349.755 605.006 350.161C605.381 350.567 605.826 350.888 606.314 351.106C606.803 351.324 607.325 351.434 607.852 351.431C608.378 351.427 608.898 351.31 609.381 351.085C609.865 350.861 610.302 350.534 610.668 350.123C611.033 349.712 611.321 349.226 611.512 348.692C611.704 348.158 611.797 347.587 611.786 347.012C611.774 346.437 611.659 345.87 611.446 345.342L609.786 341.133L612.601 340.855C612.723 340.843 612.843 340.825 612.96 340.801C613.966 340.597 614.859 339.978 615.453 339.072C616.048 338.166 616.298 337.042 616.153 335.934C616.008 334.826 615.479 333.818 614.674 333.121C613.87 332.423 612.852 332.088 611.833 332.187L611.832 332.19Z" fill="#A75174"/>
</g>
<g id="pedal_3_4">
<path id="Vector_18" d="M843.897 291.987C843.897 291.987 862.031 287.307 873.284 303.276C873.284 303.276 872.656 281.125 894.131 274.699C894.131 274.699 902.086 293.555 891.969 307.488C891.969 307.488 908.403 302.882 918.072 316.402C918.072 316.402 911.867 332.448 891.27 328.32C891.27 328.32 900.962 348.05 892.38 363.156C892.38 363.156 878.545 357.686 872.315 339.439C872.315 339.439 864.341 353.735 848.719 351.675C848.719 351.675 843.348 329.088 863.451 320.207C863.451 320.211 841.432 316.789 843.897 291.987Z" fill="#FFDEF0"/>
<path id="Vector_19" d="M886.358 314.129L883.12 313.815L883.735 311.576C883.882 311.064 883.933 310.525 883.885 309.991C883.837 309.457 883.691 308.939 883.455 308.466C883.219 307.993 882.898 307.576 882.511 307.237C882.123 306.899 881.677 306.646 881.198 306.494C880.719 306.343 880.217 306.294 879.72 306.353C879.223 306.411 878.743 306.574 878.305 306.834C877.868 307.093 877.483 307.443 877.173 307.863C876.863 308.284 876.633 308.766 876.498 309.282L875.949 311.278L873.44 309.69C872.579 309.144 871.55 308.989 870.581 309.257C869.612 309.526 868.782 310.196 868.274 311.122C867.765 312.047 867.62 313.152 867.87 314.192C868.12 315.233 868.745 316.124 869.607 316.67L872.138 318.272L869.981 320.643C869.635 321.024 869.362 321.474 869.178 321.968C868.994 322.462 868.903 322.99 868.909 323.522C868.915 324.054 869.018 324.58 869.213 325.069C869.409 325.558 869.691 326.001 870.046 326.373C870.401 326.744 870.82 327.037 871.28 327.235C871.74 327.433 872.232 327.531 872.727 327.525C873.223 327.518 873.712 327.407 874.168 327.197C874.623 326.988 875.036 326.684 875.382 326.303L876.042 325.579L876.521 327.866C876.626 328.389 876.826 328.885 877.111 329.325C877.395 329.764 877.757 330.139 878.177 330.428C878.597 330.716 879.066 330.912 879.557 331.005C880.048 331.097 880.551 331.085 881.037 330.967C881.524 330.85 881.984 330.63 882.39 330.321C882.797 330.012 883.143 329.619 883.408 329.166C883.672 328.712 883.85 328.207 883.932 327.679C884.014 327.151 883.997 326.611 883.884 326.09L883.015 321.937L885.682 322.195C885.797 322.206 885.912 322.211 886.025 322.211C886.994 322.208 887.926 321.804 888.625 321.083C889.325 320.362 889.739 319.38 889.782 318.34C889.825 317.3 889.494 316.282 888.856 315.497C888.219 314.713 887.325 314.221 886.36 314.126L886.358 314.129Z" fill="#A75174"/>
</g>
<g id="pedal_2">
<path id="Vector_20" d="M785.498 153.902C785.498 153.902 818.258 144.49 838.032 177.237C838.032 177.237 821.128 143.85 869.351 115.947C869.351 115.947 891.53 149.609 865.431 185.646C865.431 185.646 892.729 165.212 922.629 189.784C922.629 189.784 916.323 215.782 878.577 220.082C878.577 220.082 894.808 245.992 882.702 272.22C882.702 272.22 851.746 278.093 842.329 229.859C842.329 229.859 819.026 260.824 784.244 244.983C784.244 244.983 783.594 213.595 822.624 201.53C822.633 201.522 787.669 203.535 785.498 153.902Z" fill="#F090CC"/>
<path id="Vector_21" d="M861.82 192.916C859.06 193.841 856.249 194.578 853.403 195.124C853.696 193.016 854.242 190.957 855.027 188.999C855.319 188.278 855.476 187.501 855.488 186.715C855.501 185.928 855.369 185.147 855.101 184.415C854.832 183.683 854.432 183.015 853.923 182.449C853.414 181.883 852.806 181.43 852.134 181.117C851.462 180.803 850.739 180.635 850.006 180.621C849.274 180.608 848.546 180.749 847.864 181.038C847.183 181.326 846.56 181.756 846.034 182.303C845.507 182.849 845.085 183.502 844.793 184.223C843.931 186.355 843.26 188.569 842.789 190.837C841.399 190.062 839.973 189.364 838.517 188.745C837.829 188.444 837.092 188.293 836.35 188.301C835.607 188.31 834.873 188.477 834.191 188.794C833.51 189.111 832.894 189.571 832.38 190.147C831.866 190.723 831.464 191.403 831.199 192.148C830.933 192.893 830.808 193.687 830.832 194.484C830.856 195.281 831.028 196.066 831.338 196.79C831.648 197.515 832.089 198.167 832.636 198.706C833.184 199.245 833.826 199.661 834.525 199.931C834.552 199.942 835.909 200.514 837.681 201.493C835.784 203.095 834.004 204.852 832.359 206.748C831.862 207.325 831.474 208.002 831.22 208.74C830.966 209.478 830.85 210.262 830.878 211.048C830.906 211.834 831.078 212.607 831.384 213.322C831.69 214.036 832.124 214.679 832.662 215.214C833.199 215.749 833.83 216.164 834.517 216.437C835.204 216.71 835.935 216.835 836.667 216.805C837.399 216.775 838.118 216.59 838.784 216.261C839.45 215.933 840.049 215.466 840.546 214.889C841.996 213.223 843.579 211.698 845.279 210.333C846.256 212.869 847.083 215.47 847.754 218.118C848.145 219.642 849.08 220.938 850.357 221.725C851.634 222.511 853.148 222.724 854.57 222.317C855.992 221.911 857.207 220.917 857.95 219.553C858.693 218.189 858.904 216.564 858.536 215.034C857.833 212.242 856.982 209.496 855.985 206.809C859.057 206.183 862.094 205.369 865.08 204.372C865.223 204.326 865.363 204.274 865.501 204.215C866.838 203.645 867.919 202.541 868.516 201.135C869.114 199.729 869.182 198.129 868.707 196.67C868.232 195.212 867.25 194.006 865.966 193.307C864.683 192.607 863.197 192.467 861.82 192.916Z" fill="#F45885"/>
</g>
<g id="pedal_2_2">
<path id="Vector_22" d="M427.598 357.002C427.598 357.002 457.705 348.353 475.878 378.447C475.878 378.447 460.343 347.764 504.662 322.12C504.662 322.12 525.045 353.057 501.059 386.176C501.059 386.176 526.147 367.396 553.626 389.979C553.626 389.979 547.83 413.872 513.14 417.824C513.14 417.824 528.058 441.636 516.932 465.741C516.932 465.741 488.481 471.138 479.827 426.809C479.827 426.809 458.411 455.268 426.445 440.708C426.445 440.708 425.848 411.862 461.718 400.773C461.726 400.767 429.593 402.617 427.598 357.002Z" fill="#F090CC"/>
<path id="Vector_23" d="M497.741 392.857C495.205 393.708 492.622 394.385 490.006 394.886C490.275 392.949 490.777 391.057 491.498 389.258C491.767 388.595 491.911 387.881 491.922 387.158C491.934 386.435 491.813 385.717 491.566 385.044C491.319 384.372 490.951 383.758 490.483 383.238C490.016 382.718 489.457 382.302 488.839 382.014C488.222 381.725 487.557 381.571 486.884 381.558C486.211 381.546 485.542 381.676 484.915 381.941C484.289 382.206 483.717 382.601 483.233 383.103C482.749 383.606 482.361 384.206 482.093 384.869C481.301 386.827 480.684 388.862 480.251 390.947C478.974 390.234 477.664 389.593 476.325 389.024C475.693 388.747 475.016 388.609 474.333 388.616C473.65 388.624 472.976 388.778 472.35 389.069C471.723 389.361 471.157 389.783 470.685 390.313C470.213 390.842 469.843 391.467 469.599 392.152C469.355 392.836 469.24 393.566 469.262 394.299C469.284 395.031 469.442 395.752 469.727 396.418C470.012 397.084 470.418 397.683 470.921 398.179C471.424 398.674 472.014 399.057 472.656 399.304C472.681 399.315 473.928 399.84 475.557 400.74C473.813 402.212 472.178 403.827 470.666 405.569C470.208 406.1 469.853 406.722 469.619 407.4C469.385 408.078 469.278 408.799 469.304 409.522C469.33 410.244 469.488 410.954 469.769 411.611C470.051 412.268 470.45 412.859 470.944 413.35C471.438 413.841 472.017 414.223 472.649 414.474C473.28 414.725 473.952 414.84 474.625 414.812C475.298 414.785 475.959 414.615 476.571 414.313C477.182 414.011 477.733 413.582 478.19 413.052C479.522 411.521 480.977 410.119 482.54 408.864C483.438 411.195 484.198 413.585 484.815 416.019C485.174 417.42 486.033 418.611 487.206 419.334C488.38 420.057 489.771 420.252 491.078 419.878C492.385 419.505 493.502 418.591 494.185 417.338C494.867 416.084 495.061 414.591 494.724 413.185C494.077 410.619 493.295 408.095 492.379 405.626C495.202 405.05 497.993 404.302 500.737 403.386C500.869 403.344 500.998 403.295 501.124 403.242C502.353 402.717 503.346 401.703 503.895 400.411C504.444 399.119 504.507 397.649 504.07 396.308C503.634 394.967 502.731 393.859 501.552 393.216C500.372 392.573 499.007 392.445 497.741 392.857Z" fill="#F45885"/>
</g>
<g id="pedal_2_3">
<path id="Vector_24" d="M464.723 113.444C464.723 113.444 493.013 105.316 510.088 133.594C510.088 133.594 495.491 104.763 537.134 80.6675C537.134 80.6675 556.286 109.736 533.749 140.856C533.749 140.856 557.322 123.21 583.142 144.429C583.142 144.429 577.696 166.88 545.1 170.593C545.1 170.593 559.117 192.966 548.663 215.616C548.663 215.616 521.93 220.687 513.799 179.035C513.799 179.035 493.676 205.775 463.64 192.095C463.64 192.095 463.079 164.991 496.783 154.572C496.791 154.565 466.597 156.303 464.723 113.444Z" fill="#F090CC"/>
<path id="Vector_25" d="M530.627 147.134C528.244 147.933 525.817 148.57 523.359 149.04C523.612 147.22 524.084 145.442 524.761 143.752C525.013 143.129 525.149 142.458 525.16 141.779C525.171 141.1 525.057 140.425 524.825 139.793C524.593 139.161 524.247 138.584 523.808 138.095C523.368 137.607 522.843 137.216 522.263 136.945C521.683 136.674 521.058 136.529 520.426 136.517C519.793 136.505 519.165 136.628 518.576 136.877C517.987 137.126 517.45 137.497 516.995 137.969C516.54 138.441 516.176 139.005 515.924 139.628C515.18 141.468 514.6 143.38 514.193 145.339C512.993 144.669 511.762 144.066 510.504 143.532C509.91 143.272 509.274 143.142 508.633 143.149C507.991 143.156 507.357 143.301 506.769 143.575C506.18 143.848 505.648 144.245 505.205 144.743C504.761 145.24 504.414 145.828 504.184 146.471C503.955 147.114 503.847 147.8 503.868 148.488C503.888 149.177 504.037 149.854 504.305 150.48C504.572 151.106 504.953 151.668 505.426 152.134C505.899 152.6 506.453 152.959 507.057 153.192C507.08 153.201 508.252 153.695 509.783 154.541C508.144 155.924 506.607 157.441 505.187 159.079C504.757 159.577 504.423 160.161 504.203 160.799C503.984 161.436 503.883 162.113 503.907 162.792C503.932 163.471 504.08 164.138 504.344 164.755C504.609 165.373 504.984 165.928 505.448 166.389C505.912 166.851 506.457 167.21 507.05 167.446C507.643 167.681 508.274 167.789 508.906 167.763C509.539 167.737 510.16 167.578 510.735 167.294C511.31 167.01 511.827 166.607 512.257 166.109C513.508 164.67 514.876 163.354 516.344 162.174C517.187 164.365 517.901 166.61 518.481 168.897C518.818 170.213 519.626 171.333 520.728 172.012C521.831 172.691 523.138 172.875 524.367 172.524C525.595 172.172 526.644 171.314 527.285 170.136C527.927 168.958 528.109 167.555 527.792 166.234C527.185 163.823 526.449 161.452 525.589 159.131C528.242 158.59 530.864 157.888 533.442 157.027C533.566 156.987 533.687 156.942 533.806 156.892C534.961 156.399 535.894 155.446 536.41 154.231C536.926 153.017 536.985 151.636 536.574 150.376C536.164 149.116 535.316 148.076 534.208 147.471C533.1 146.867 531.817 146.746 530.627 147.134Z" fill="#F45885"/>
</g>
<g id="pedal_1">
<path id="Vector_26" d="M936.183 178.055C938.455 187.695 944.154 202.619 958.132 208.515C958.132 208.515 944.421 211.75 937.981 232.91C937.661 233.997 937.557 235.144 937.677 236.277C937.797 237.41 938.138 238.503 938.678 239.485C939.217 240.467 939.944 241.316 940.809 241.977C941.675 242.637 942.66 243.095 943.701 243.319C953.111 245.402 969.607 246.17 983.701 231.869C985.372 239.219 988.752 245.993 993.523 251.559C998.295 257.124 1004.3 261.3 1010.99 263.695C1012.87 264.382 1014.93 264.244 1016.72 263.309C1018.51 262.375 1019.88 260.72 1020.54 258.704C1023.46 249.667 1025.53 233.149 1009.99 218.159C1009.99 218.159 1029.56 220.161 1042.25 205.228C1043.01 204.335 1043.56 203.274 1043.88 202.121C1044.2 200.968 1044.28 199.753 1044.11 198.564C1043.94 197.375 1043.52 196.243 1042.89 195.249C1042.26 194.255 1041.43 193.424 1040.46 192.818C1033.19 188.299 1020.07 183.424 1002.01 189.802C1005.33 183.307 1007.15 176.045 1007.29 168.635C1007.43 161.226 1005.9 153.889 1002.82 147.253C1002.35 146.21 1001.68 145.287 1000.85 144.545C1000.02 143.803 999.056 143.26 998.016 142.952C996.976 142.644 995.886 142.577 994.82 142.758C993.753 142.938 992.735 143.36 991.834 143.997C984.339 149.368 973.746 160.807 975.657 181.869C975.657 181.869 961.798 167.534 943.437 167.969C942.297 167.987 941.175 168.281 940.155 168.829C939.134 169.377 938.243 170.165 937.545 171.134C936.848 172.103 936.364 173.229 936.128 174.427C935.892 175.626 935.911 176.866 936.183 178.055Z" fill="#FFDEF0"/>
<path id="Vector_27" d="M997.537 199.673C993.82 199.802 990.86 200.075 988.536 200.387C989.271 198.459 990.116 196.582 991.068 194.766C991.571 193.803 991.697 192.665 991.418 191.602C991.139 190.539 990.478 189.639 989.581 189.099C988.684 188.559 987.624 188.424 986.634 188.724C985.644 189.023 984.806 189.733 984.303 190.696C982.811 193.533 981.55 196.502 980.532 199.571L973.644 195.475C973.198 195.188 972.702 195 972.187 194.922C971.672 194.845 971.147 194.88 970.644 195.025C970.142 195.169 969.671 195.421 969.261 195.766C968.852 196.11 968.51 196.539 968.258 197.028C968.006 197.517 967.848 198.055 967.794 198.611C967.739 199.167 967.79 199.728 967.942 200.263C968.094 200.797 968.345 201.293 968.679 201.721C969.014 202.149 969.425 202.501 969.889 202.754L976.652 206.784L970.752 213.387C970.399 213.781 970.122 214.246 969.937 214.756C969.752 215.265 969.662 215.809 969.673 216.355C969.683 216.902 969.794 217.441 969.998 217.942C970.203 218.442 970.497 218.895 970.865 219.273C971.232 219.652 971.665 219.949 972.14 220.148C972.614 220.347 973.12 220.443 973.629 220.432C974.138 220.421 974.64 220.302 975.107 220.082C975.573 219.863 975.994 219.547 976.347 219.152L982.193 212.612C983.458 214.89 985.206 218.001 987.509 222.028C987.773 222.499 988.122 222.91 988.534 223.236C988.947 223.562 989.415 223.797 989.913 223.927C990.41 224.057 990.927 224.081 991.433 223.995C991.939 223.91 992.424 223.718 992.861 223.43C993.297 223.143 993.676 222.765 993.976 222.319C994.276 221.873 994.49 221.368 994.607 220.832C994.724 220.297 994.741 219.742 994.657 219.2C994.573 218.657 994.39 218.138 994.118 217.672C991.964 213.906 990.292 210.933 989.055 208.709C991.18 208.41 994.05 208.126 997.79 207.997C998.111 207.986 998.429 207.932 998.738 207.837C999.647 207.558 1000.43 206.931 1000.94 206.074C1001.45 205.218 1001.65 204.191 1001.5 203.187C1001.35 202.184 1000.87 201.272 1000.14 200.625C999.411 199.978 998.486 199.64 997.541 199.674L997.537 199.673Z" fill="#A75174"/>
</g>
<g id="pedal_4">
<path id="Vector_28" d="M578.303 211.48C578.303 211.48 590.938 200.454 605.404 208.472C605.404 208.472 597.133 191.288 611.781 177.536C611.781 177.536 624.665 189.162 621.59 204.227C621.59 204.227 632.912 193.947 645.273 200.682C645.273 200.682 646.021 215.827 628.354 220.915C628.354 220.915 642.911 232.524 641.458 247.892C641.458 247.892 628.644 249.186 617.335 237.34C617.335 237.34 615.854 253.021 601.488 257.014C601.488 257.014 590.241 241.632 602.953 226.497C602.956 226.501 585.07 232.008 578.303 211.48Z" fill="#FFDEF0"/>
<path id="Vector_29" d="M624.57 212.286C624.193 211.497 623.539 210.901 622.753 210.629C621.966 210.358 621.111 210.433 620.376 210.838L616.352 213.056L615.724 209.886C615.552 209.018 615.066 208.259 614.373 207.776C613.68 207.293 612.837 207.125 612.029 207.309C611.221 207.494 610.514 208.016 610.064 208.76C609.614 209.504 609.457 210.409 609.629 211.277L610.251 214.421L605.944 214.136C605.535 214.109 605.126 214.169 604.739 214.312C604.352 214.455 603.995 214.679 603.689 214.97C603.382 215.261 603.132 215.614 602.953 216.009C602.773 216.403 602.668 216.832 602.643 217.271C602.618 217.709 602.674 218.149 602.807 218.564C602.94 218.98 603.148 219.363 603.419 219.692C603.69 220.021 604.019 220.29 604.387 220.482C604.755 220.675 605.154 220.788 605.562 220.815L609.889 221.1L608.474 225.574C608.342 225.99 608.288 226.43 608.315 226.869C608.342 227.307 608.448 227.736 608.629 228.13C608.81 228.524 609.062 228.876 609.369 229.165C609.677 229.455 610.035 229.677 610.422 229.818C610.809 229.96 611.219 230.018 611.627 229.989C612.036 229.96 612.435 229.846 612.802 229.651C613.169 229.457 613.496 229.187 613.766 228.857C614.036 228.527 614.243 228.143 614.374 227.727L615.38 224.546L617.396 226.98C617.668 227.308 617.997 227.576 618.365 227.767C618.734 227.959 619.133 228.07 619.542 228.096C619.95 228.122 620.36 228.061 620.746 227.917C621.133 227.773 621.489 227.548 621.795 227.256C622.1 226.964 622.35 226.61 622.528 226.215C622.706 225.82 622.81 225.39 622.834 224.952C622.858 224.513 622.801 224.074 622.667 223.659C622.533 223.244 622.324 222.861 622.052 222.533L619.153 219.032L623.222 216.789C623.957 216.384 624.512 215.682 624.765 214.837C625.018 213.993 624.948 213.075 624.57 212.286Z" fill="#A75174"/>
</g>
<path id="Vector_30" d="M373.334 407.604C372.247 407.604 371.17 407.374 370.165 406.926C369.16 406.479 368.248 405.823 367.48 404.996C367.084 404.589 366.736 404.132 366.442 403.636C366.134 403.155 365.877 402.639 365.673 402.098C365.464 401.566 365.305 401.014 365.198 400.448C365.091 399.868 365.034 399.279 365.03 398.687C365.031 397.369 365.304 396.068 365.829 394.876C366.355 393.685 367.12 392.634 368.069 391.798C369.018 390.963 370.128 390.363 371.319 390.043C372.51 389.724 373.752 389.691 374.956 389.948C375.49 390.061 376.012 390.234 376.513 390.463C377.017 390.679 377.497 390.955 377.943 391.286C378.406 391.602 378.832 391.976 379.212 392.401C380.367 393.649 381.153 395.237 381.47 396.964C381.787 398.691 381.621 400.48 380.992 402.106C380.364 403.732 379.301 405.121 377.938 406.1C376.576 407.078 374.974 407.602 373.334 407.604Z" fill="#F090CC"/>
</g>
</g>
<g id="Torii">
<rect id="Rectangle 1" x="145.874" y="828.236" width="29.9724" height="340.422" fill="#132B47"/>
<rect id="Rectangle 2" x="400.419" y="829.201" width="31.1191" height="339.713" fill="#152B43"/>
<rect id="Rectangle 3" x="146.075" y="767.675" width="20.1945" height="62.2236" fill="#182C46"/>
<rect id="Rectangle 4" x="412.116" y="767.675" width="20.1945" height="69.7659" fill="#152A46"/>
<path id="Vector 1" d="M114.91 822.356V789.359C250.692 829.003 326.825 832.852 462.606 789.83V822.356C329.66 854.215 253.681 855.858 114.91 822.356Z" fill="#254157"/>
<path id="Vector 2" d="M115.348 764.847V731.849C251.13 771.494 327.263 775.343 463.044 732.321V764.847C330.098 796.706 254.119 798.349 115.348 764.847Z" fill="#27415A"/>
<path id="Vector 3" d="M96.9106 728.549V671.04C248.918 728.442 333.053 736.032 480.606 671.04V728.549C333.822 776.226 249.677 774.224 96.9106 728.549Z" fill="#152A45"/>
</g>
</g>
</g>
<g id="pedalGroup2">
<path id="Vector_31" d="M72.4155 701.153C72.4155 701.153 93.2284 718.718 119.292 683.428C119.29 683.431 98.4372 668.73 72.4155 701.153Z" fill="#F090CC"/>
<path id="Vector_32" d="M28.5973 313.768C28.5973 313.768 24.2934 332.363 34.3848 344.012C34.3848 344.012 43.6315 354.408 55.9944 349.71C55.9944 349.71 58.4997 317.944 28.5973 313.768Z" fill="#FFD2E9"/>
<path id="Vector_33" d="M267.113 244.965C267.113 244.965 268.742 270.434 304.604 266.019C304.601 266.02 301.258 242.339 267.113 244.965Z" fill="#F090CC"/>
<g id="pedal_2_4">
<path id="Vector_34" d="M94.0141 161.463C94.0141 161.463 115.416 159.777 125.411 180.173C125.411 180.173 128.553 154.882 154.05 151.882C154.05 151.882 159.8 174.898 145.89 188.7C145.89 188.7 165.348 186.758 173.971 204.058C173.971 204.058 164.136 221.047 141.47 212.229C141.47 212.229 149.04 236.584 136.669 252.026C136.669 252.026 121.914 243.041 118.018 221.065C118.018 221.065 106.478 235.708 89.1015 230.24C89.1015 230.24 86.3359 204.067 110.705 198.002C110.703 198.005 86.9004 189.145 94.0141 161.463Z" fill="#FFABD1"/>
<path id="Vector_35" d="M133.872 188.176L129.276 187.798L131.303 182.718C131.463 182.317 131.542 181.889 131.537 181.457C131.532 181.026 131.443 180.599 131.274 180.202C131.105 179.805 130.86 179.446 130.552 179.144C130.245 178.842 129.882 178.604 129.483 178.444C129.084 178.283 128.658 178.203 128.228 178.208C127.798 178.213 127.374 178.303 126.979 178.473C126.584 178.643 126.226 178.889 125.926 179.198C125.625 179.507 125.388 179.872 125.229 180.272L123.081 185.656C121.475 184.645 119.79 183.768 118.043 183.032C117.236 182.718 116.339 182.738 115.547 183.087C114.756 183.436 114.133 184.085 113.817 184.893C113.5 185.702 113.515 186.603 113.857 187.401C114.2 188.198 114.843 188.827 115.646 189.149C116.995 189.732 118.298 190.415 119.545 191.192L114.505 196.37C114.198 196.677 113.955 197.043 113.79 197.445C113.625 197.847 113.541 198.279 113.543 198.714C113.545 199.149 113.633 199.58 113.802 199.981C113.972 200.381 114.218 200.744 114.528 201.049C114.838 201.353 115.205 201.592 115.607 201.753C116.01 201.914 116.441 201.992 116.874 201.984C117.307 201.977 117.734 201.882 118.131 201.707C118.528 201.532 118.886 201.28 119.185 200.964L122.829 197.219C123.248 199.094 123.488 201.005 123.545 202.926C123.538 203.798 123.877 204.636 124.485 205.258C125.094 205.879 125.923 206.232 126.791 206.239H126.818C127.681 206.239 128.509 205.896 129.122 205.285C129.735 204.674 130.083 203.845 130.09 202.978C130 200.071 129.604 197.182 128.909 194.36L133.337 194.724C133.429 194.732 133.519 194.735 133.609 194.735C134.452 194.733 135.262 194.403 135.869 193.816C136.477 193.228 136.835 192.427 136.869 191.581C136.903 190.734 136.61 189.907 136.052 189.272C135.494 188.637 134.713 188.243 133.873 188.172L133.872 188.176Z" fill="#F45885"/>
</g>
</g>
<g id="pedalGroup3">
<path id="Vector_36" d="M955.62 621.032C955.62 621.032 966.182 605.215 960.995 590.723C960.995 590.723 956.143 577.703 943.066 577.659C943.066 577.659 929.498 606.417 955.62 621.032Z" fill="#F090CC"/>
<g id="pedal_2_5">
<path id="Vector_37" d="M920.715 840.213C920.715 840.213 900.362 834.117 898.363 811.493C898.363 811.493 886.501 833.979 861.902 827.642C861.902 827.642 864.75 804.094 882.48 796.194C882.48 796.194 863.831 791.034 862.001 771.793C862.001 771.793 877.1 759.457 894.897 775.812C894.897 775.812 896.539 750.362 913.431 740.379C913.431 740.379 923.867 754.054 919.677 775.967C919.677 775.967 935.518 766.432 949.62 777.764C949.62 777.764 942.899 803.19 918.255 800.119C918.257 800.117 937.09 816.919 920.715 840.213Z" fill="#FFABD1"/>
<path id="Vector_38" d="M892.954 800.754L897.104 802.771L893.412 806.787C893.121 807.104 892.895 807.476 892.746 807.881C892.597 808.286 892.53 808.717 892.546 809.15C892.563 809.582 892.664 810.007 892.843 810.4C893.023 810.793 893.277 811.147 893.592 811.442C893.907 811.736 894.276 811.965 894.678 812.116C895.081 812.267 895.508 812.337 895.937 812.321C896.365 812.305 896.786 812.204 897.176 812.024C897.565 811.844 897.916 811.589 898.207 811.272L902.12 807.016C903.258 808.542 904.517 809.972 905.885 811.293C906.525 811.878 907.368 812.184 908.23 812.144C909.092 812.105 909.903 811.723 910.485 811.082C911.067 810.441 911.373 809.593 911.337 808.723C911.3 807.853 910.924 807.033 910.29 806.441C909.239 805.408 908.266 804.298 907.38 803.119L913.916 800.103C914.311 799.927 914.667 799.673 914.964 799.357C915.26 799.04 915.492 798.667 915.644 798.26C915.797 797.852 915.867 797.417 915.852 796.982C915.836 796.546 915.735 796.117 915.554 795.72C915.373 795.324 915.116 794.967 914.798 794.671C914.48 794.375 914.106 794.146 913.7 793.997C913.293 793.847 912.861 793.781 912.429 793.801C911.997 793.821 911.574 793.927 911.184 794.114L906.457 796.297C906.732 794.392 907.187 792.519 907.815 790.702C908.13 789.889 908.113 788.983 907.766 788.182C907.419 787.381 906.771 786.751 905.964 786.43L905.939 786.42C905.135 786.108 904.241 786.128 903.453 786.478C902.665 786.827 902.046 787.476 901.732 788.285C900.785 791.035 900.129 793.879 899.775 796.77L895.776 794.826C895.693 794.786 895.611 794.75 895.527 794.717C894.74 794.414 893.868 794.429 893.093 794.759C892.318 795.089 891.701 795.708 891.368 796.487C891.036 797.266 891.015 798.145 891.31 798.941C891.605 799.736 892.193 800.387 892.952 800.758L892.954 800.754Z" fill="#F45885"/>
</g>
</g>
<g id="pedalGroup1">
<path id="Vector_39" d="M14.7279 931.099C14.7279 931.099 36.5219 950.779 61.8564 913.918C61.855 913.921 40.1181 897.315 14.7279 931.099Z" fill="#FFD2E9"/>
<g id="pedal_2_6">
<path id="Vector_40" d="M285.665 865.06C285.665 865.06 303.661 861.238 314.123 877.428C314.123 877.428 314.332 855.616 335.676 850.22C335.676 850.22 342.79 869.108 332.327 882.374C332.327 882.374 348.649 878.551 357.646 892.268C357.646 892.268 350.95 907.783 330.863 902.833C330.863 902.833 339.651 922.654 330.654 937.14C330.654 937.14 317.261 931.165 311.821 912.952C311.821 912.952 303.452 926.668 288.177 923.97C288.177 923.97 283.288 902.07 303.376 894.2C303.375 894.202 282.318 889.345 285.665 865.06Z" fill="#FFABD1"/>
<path id="Vector_41" d="M326.705 889.658L322.422 889.281L324.311 884.218C324.46 883.818 324.534 883.391 324.53 882.961C324.525 882.531 324.442 882.106 324.284 881.71C324.127 881.315 323.898 880.957 323.612 880.656C323.326 880.355 322.987 880.118 322.615 879.958C322.244 879.798 321.846 879.718 321.446 879.723C321.046 879.728 320.65 879.818 320.282 879.987C319.914 880.156 319.58 880.402 319.301 880.709C319.021 881.017 318.8 881.381 318.651 881.78L316.65 887.146C315.154 886.139 313.584 885.264 311.955 884.531C311.204 884.218 310.368 884.238 309.63 884.585C308.893 884.933 308.313 885.58 308.018 886.386C307.723 887.191 307.736 888.09 308.056 888.885C308.375 889.679 308.974 890.306 309.722 890.628C310.979 891.208 312.193 891.888 313.356 892.664L308.659 897.824C308.373 898.13 308.147 898.494 307.993 898.895C307.839 899.296 307.761 899.726 307.763 900.16C307.765 900.594 307.847 901.023 308.004 901.422C308.162 901.822 308.392 902.184 308.681 902.487C308.969 902.79 309.311 903.029 309.686 903.189C310.062 903.349 310.463 903.427 310.866 903.419C311.27 903.412 311.668 903.318 312.038 903.143C312.407 902.969 312.741 902.717 313.019 902.403L316.415 898.67C316.805 900.539 317.029 902.443 317.083 904.358C317.076 905.227 317.391 906.062 317.959 906.682C318.526 907.301 319.298 907.652 320.107 907.659H320.132C320.936 907.659 321.708 907.318 322.279 906.709C322.85 906.1 323.174 905.274 323.181 904.409C323.097 901.513 322.728 898.634 322.08 895.82L326.207 896.184C326.292 896.191 326.376 896.195 326.46 896.195C327.245 896.192 328 895.864 328.566 895.278C329.132 894.692 329.466 893.894 329.497 893.051C329.529 892.207 329.256 891.383 328.736 890.75C328.216 890.117 327.489 889.724 326.706 889.654L326.705 889.658Z" fill="#F45885"/>
</g>
<g id="pedal_2_7">
<path id="Vector_42" d="M9.56906 763.542C9.56906 763.542 20.9333 761.128 27.5398 771.352C27.5398 771.352 27.6722 757.578 41.1503 754.17C41.1503 754.17 45.6429 766.098 39.0359 774.475C39.0359 774.475 49.3427 772.061 55.0246 780.723C55.0246 780.723 50.7963 790.521 38.1108 787.395C38.1108 787.395 43.6609 799.912 37.979 809.06C37.979 809.06 29.5218 805.286 26.0862 793.785C26.0862 793.785 20.8009 802.446 11.155 800.743C11.155 800.743 8.06784 786.913 20.7533 781.943C20.7528 781.945 7.45513 778.877 9.56906 763.542Z" fill="#FFABD1"/>
<path id="Vector_43" d="M35.4932 779.074L32.7888 778.836L33.9815 775.639C34.0755 775.387 34.1224 775.117 34.1195 774.846C34.1166 774.574 34.0639 774.305 33.9644 774.056C33.865 773.806 33.7207 773.58 33.5399 773.39C33.3591 773.2 33.1452 773.05 32.9105 772.949C32.6758 772.848 32.4249 772.798 32.1721 772.801C31.9193 772.804 31.6695 772.86 31.4371 772.967C31.2046 773.074 30.9941 773.229 30.8173 773.423C30.6406 773.618 30.5013 773.848 30.4072 774.1L29.1433 777.488C28.1985 776.852 27.2071 776.3 26.1789 775.837C25.7045 775.639 25.1766 775.652 24.7107 775.871C24.2447 776.091 23.8786 776.499 23.6923 777.008C23.5059 777.517 23.5145 778.084 23.7162 778.586C23.9179 779.088 24.2963 779.484 24.7687 779.687C25.5623 780.053 26.3292 780.483 27.0631 780.973L24.0972 784.231C23.9167 784.424 23.7737 784.654 23.6765 784.908C23.5794 785.161 23.53 785.433 23.5313 785.706C23.5325 785.98 23.5844 786.251 23.6839 786.504C23.7834 786.756 23.9285 786.984 24.1109 787.176C24.2932 787.367 24.5091 787.518 24.7461 787.619C24.983 787.72 25.2363 787.77 25.4912 787.765C25.7461 787.76 25.9975 787.7 26.2309 787.59C26.4643 787.48 26.675 787.321 26.8508 787.123L28.9951 784.765C29.2417 785.945 29.3829 787.148 29.4167 788.357C29.4127 788.906 29.6117 789.434 29.9699 789.825C30.328 790.216 30.816 790.438 31.3265 790.442H31.3424C31.8504 790.442 32.3377 790.227 32.6984 789.842C33.059 789.458 33.2636 788.936 33.2677 788.39C33.2147 786.561 32.9817 784.743 32.5727 782.966L35.1785 783.196C35.2324 783.2 35.2853 783.202 35.3383 783.202C35.8345 783.201 36.311 782.993 36.6684 782.624C37.0258 782.254 37.2365 781.75 37.2566 781.217C37.2766 780.684 37.1045 780.164 36.776 779.764C36.4476 779.364 35.9882 779.116 35.4937 779.072L35.4932 779.074Z" fill="#F45885"/>
</g>
<g id="pedal_4_2">
<path id="Vector_44" d="M117.169 432.17C117.169 432.17 136.075 427.652 148.007 443.723C148.007 443.723 147.115 421.567 169.49 415.331C169.49 415.331 178.007 434.26 167.579 448.102C167.579 448.102 184.708 443.642 194.96 457.254C194.96 457.254 188.645 473.245 167.07 468.932C167.07 468.932 177.412 488.748 168.602 503.777C168.602 503.777 154.081 498.184 147.377 479.88C147.377 479.88 138.39 495.217 120.913 491.563C120.913 491.563 115.941 469.654 136.864 460.948C136.867 460.954 114.856 456.954 117.169 432.17Z" fill="#FFDEF0"/>
<path id="Vector_45" d="M167.07 458.116C167.03 457.099 166.599 456.131 165.873 455.425C165.146 454.719 164.183 454.333 163.195 454.351L157.786 454.45L158.591 450.847C158.811 449.86 158.64 448.816 158.114 447.942C157.588 447.069 156.751 446.439 155.787 446.19C154.823 445.941 153.811 446.095 152.974 446.616C152.136 447.138 151.542 447.985 151.322 448.971L150.523 452.545L145.98 449.914C145.549 449.665 145.077 449.504 144.59 449.442C144.103 449.379 143.611 449.415 143.142 449.548C142.672 449.682 142.235 449.909 141.855 450.218C141.476 450.527 141.16 450.912 140.927 451.349C140.695 451.787 140.549 452.27 140.499 452.769C140.449 453.269 140.495 453.777 140.635 454.262C140.775 454.748 141.006 455.203 141.315 455.601C141.624 455.998 142.004 456.331 142.435 456.581L146.999 459.222L143.364 463.059C143.026 463.416 142.762 463.839 142.585 464.305C142.409 464.77 142.324 465.269 142.335 465.773C142.347 466.277 142.455 466.775 142.653 467.241C142.851 467.706 143.135 468.128 143.49 468.484C143.844 468.839 144.262 469.121 144.718 469.313C145.175 469.505 145.662 469.604 146.151 469.603C146.641 469.602 147.123 469.502 147.571 469.309C148.019 469.115 148.423 468.832 148.761 468.475L151.344 465.748L152.392 469.346C152.533 469.831 152.765 470.286 153.075 470.683C153.385 471.079 153.767 471.411 154.198 471.659C154.63 471.908 155.102 472.067 155.59 472.128C156.077 472.19 156.569 472.152 157.038 472.017C157.506 471.883 157.943 471.654 158.322 471.344C158.701 471.033 159.015 470.648 159.247 470.21C159.478 469.771 159.623 469.288 159.672 468.788C159.72 468.288 159.673 467.781 159.532 467.296L158.025 462.12L163.494 462.02C164.482 462.001 165.414 461.58 166.084 460.848C166.755 460.116 167.109 459.133 167.07 458.116Z" fill="#F982AA"/>
</g>
<path id="Vector_46" d="M601.855 619.682C601.855 619.682 627.92 618.274 631.181 569.486C631.181 569.489 606.553 573.278 601.855 619.682Z" fill="#F090CC"/>
</g>
</g>
<defs>
<linearGradient id="paint0_linear" x1="511.53" y1="0" x2="327.689" y2="928.807" gradientUnits="userSpaceOnUse">
<stop stop-color="#A6CEF1"/>
<stop offset="1" stop-color="#FBD5EA"/>
</linearGradient>
<linearGradient id="paint1_linear" x1="511.53" y1="0" x2="327.689" y2="928.807" gradientUnits="userSpaceOnUse">
<stop stop-color="#A6CEF1"/>
<stop offset="1" stop-color="#FCD4EA"/>
</linearGradient>
<linearGradient id="paint2_linear" x1="667.102" y1="632.416" x2="667.102" y2="918.37" gradientUnits="userSpaceOnUse">
<stop stop-color="#9FD2FF"/>
<stop offset="1" stop-color="#CDE4FF"/>
</linearGradient>
</defs>
</svg>
