<svg width="1024" height="1024" viewBox="0 0 1024 1024" fill="none" xmlns="http://www.w3.org/2000/svg">
<mask id="mask0" mask-type="alpha" maskUnits="userSpaceOnUse" x="0" y="0" width="1024" height="1024">
<ellipse rx="511.489" ry="511.2" transform="matrix(0.999999 -0.00156406 0.001001 1 512 512)" fill="url(#paint0_linear)"/>
</mask>
<g mask="url(#mask0)">
<ellipse rx="511.489" ry="511.2" transform="matrix(0.999999 -0.00156406 0.001001 1 513 514)" fill="url(#paint1_linear)"/>
<path d="M807.692 519.339C807.692 606.075 737.528 676.369 651 676.369C564.472 676.369 494.308 606.075 494.308 519.339C494.308 432.602 564.472 362.308 651 362.308C737.528 362.308 807.692 432.602 807.692 519.339Z" fill="white" stroke="#DEE3F7" stroke-width="10.6157"/>
<path d="M388.15 749.785L458.552 727.576L908.353 756.317L960.503 794.205C960.503 794.205 1101.31 913.105 1203 960.132V1086.18H132.61L120.086 994.887C120.086 994.887 301.354 838.497 388.15 749.785Z" fill="#5870A7"/>
<path d="M680.938 813.549L668.86 906.664C668.654 908.246 667.891 909.702 666.709 910.77C665.527 911.838 664.004 912.448 662.413 912.491C660.822 912.533 659.268 912.005 658.031 911.002C656.794 909.998 655.955 908.585 655.665 907.017L638.44 813.537L680.938 813.549Z" fill="#CDE4FF"/>
<path d="M594.948 547.27H711.121C717.35 547.27 723.507 548.606 729.178 551.187C734.85 553.768 739.905 557.535 744.004 562.235C777.885 601.086 872.557 708.195 960.499 794.205C942.17 787.908 922.701 785.655 903.422 787.598C884.144 789.541 865.512 795.635 848.802 805.463C832.588 814.694 813.618 817.824 795.306 814.291C785.156 812.41 775.366 808.939 766.294 804.004C757.238 799.105 747.241 796.203 736.974 795.491C726.707 794.78 716.406 796.276 706.763 799.879C697.57 803.233 688.878 807.832 680.93 813.548C661.344 828.01 637.289 835.073 613.012 833.491C594.221 832 576.218 825.282 561.03 814.094C551.385 807.267 540.314 802.734 528.659 800.839C499.55 795.865 469.62 799.932 442.885 812.495C442.885 812.495 445.496 749.765 388.13 749.765C388.13 749.765 493.726 649.696 560.609 563.961C564.691 558.747 569.905 554.534 575.855 551.642C581.805 548.75 588.335 547.254 594.948 547.27Z" fill="url(#paint2_linear)"/>
<path d="M960.503 794.205C872.561 708.179 777.889 601.095 744.008 562.235C739.907 557.536 734.851 553.771 729.179 551.191C723.507 548.611 717.35 547.277 711.121 547.278H594.948C593.115 547.288 591.284 547.411 589.466 547.647L699.329 569.923C710.495 572.182 720.452 578.451 727.327 587.553C781.108 657.924 839.241 724.844 901.385 787.92C921.31 785.348 941.56 787.501 960.503 794.205Z" fill="#C4E1FE"/>
<path d="M442.906 812.495L511.323 729.585C512.395 728.286 513.889 727.406 515.543 727.099C517.197 726.792 518.906 727.077 520.372 727.904C521.838 728.732 522.967 730.048 523.563 731.625C524.158 733.202 524.182 734.938 523.63 736.53L489.834 833.774L442.906 812.495Z" fill="#4673AA"/>
<path d="M843.09 808.44L791.288 711.893C790.691 710.782 790.519 709.49 790.803 708.261C791.088 707.031 791.81 705.948 792.834 705.213C793.858 704.478 795.114 704.142 796.368 704.269C797.621 704.395 798.785 704.975 799.643 705.899L905.125 819.506L843.09 808.44Z" fill="#4673AA"/>
<path d="M205.067 390.592C205.067 390.592 248.166 405.121 258.78 365.502C258.78 365.502 226.038 350.557 205.067 390.592Z" fill="#F090CC"/>
<path d="M450.828 129.319C449.92 129.319 449.02 129.14 448.181 128.791C447.342 128.443 446.579 127.933 445.937 127.289C445.607 126.973 445.316 126.618 445.07 126.231C444.813 125.857 444.598 125.456 444.429 125.035C444.254 124.621 444.121 124.191 444.031 123.751C443.942 123.3 443.895 122.841 443.891 122.381C443.892 121.356 444.12 120.343 444.559 119.416C444.998 118.49 445.637 117.672 446.43 117.021C447.223 116.371 448.15 115.905 449.145 115.656C450.14 115.407 451.177 115.382 452.183 115.582C452.629 115.67 453.065 115.804 453.484 115.983C453.905 116.151 454.306 116.365 454.679 116.623C455.066 116.868 455.421 117.16 455.739 117.49C456.704 118.461 457.361 119.697 457.625 121.04C457.89 122.384 457.751 123.776 457.226 125.041C456.701 126.306 455.813 127.387 454.675 128.148C453.536 128.909 452.198 129.317 450.828 129.319Z" fill="#F090CC"/>
<path d="M405.075 272.129C403.803 272.129 402.543 271.878 401.368 271.391C400.193 270.903 399.126 270.189 398.228 269.288C397.765 268.845 397.358 268.348 397.014 267.807C396.654 267.283 396.353 266.721 396.116 266.132C395.871 265.553 395.685 264.951 395.56 264.335C395.434 263.703 395.368 263.061 395.363 262.417C395.364 260.982 395.683 259.564 396.298 258.267C396.912 256.97 397.807 255.825 398.917 254.915C400.027 254.004 401.325 253.352 402.718 253.003C404.11 252.655 405.563 252.62 406.971 252.9C407.596 253.023 408.206 253.211 408.792 253.461C409.381 253.696 409.942 253.996 410.465 254.357C411.006 254.7 411.504 255.108 411.948 255.57C413.3 256.93 414.219 258.659 414.589 260.54C414.96 262.421 414.765 264.37 414.03 266.141C413.295 267.911 412.052 269.425 410.459 270.49C408.865 271.556 406.992 272.126 405.075 272.129V272.129Z" fill="#F090CC"/>
<path d="M545.112 204.19C543.84 204.19 542.581 203.939 541.406 203.452C540.231 202.964 539.164 202.25 538.265 201.35C537.803 200.906 537.395 200.409 537.051 199.868C536.692 199.344 536.391 198.783 536.153 198.193C535.908 197.614 535.722 197.012 535.597 196.397C535.472 195.765 535.406 195.123 535.401 194.479C535.402 193.043 535.721 191.626 536.335 190.328C536.95 189.031 537.845 187.886 538.955 186.976C540.065 186.066 541.363 185.413 542.755 185.064C544.148 184.716 545.6 184.681 547.008 184.961C547.633 185.084 548.244 185.272 548.829 185.522C549.419 185.757 549.98 186.057 550.502 186.418C551.044 186.761 551.542 187.169 551.986 187.632C553.337 188.991 554.256 190.721 554.627 192.602C554.997 194.483 554.803 196.431 554.068 198.202C553.333 199.972 552.09 201.486 550.496 202.552C548.903 203.617 547.029 204.187 545.112 204.19V204.19Z" fill="#F090CC"/>
<path d="M355.772 1.07307C355.772 1.07307 375.269 -20.2942 341.98 -40.5583C341.983 -40.5573 325.368 -19.4774 355.772 1.07307Z" fill="#F090CC"/>
<path d="M297.614 298.468C297.614 298.468 198.5 312 197 312.5C195.5 313 266.607 314.734 319.798 309.56L280.283 340.756L235.914 392.057L294.841 349.075L344.062 306.094L371.099 283.909L396.75 258.952L459.836 236.768L546.493 222.21L633.843 204.185C651.746 180.419 685.144 163.283 696.929 163.283C708.714 163.283 793.985 150.804 789.825 155.657C785.666 160.51 675.438 281.83 675.438 281.83C675.438 281.83 817.555 159.123 821.022 155.657C824.488 152.191 850.548 138.434 886.881 126.54V93.9575C883.955 89.8669 816.288 127.266 809.93 130.7C803.571 134.134 687.917 130.7 687.917 130.7L617.205 167.443C594.476 159.56 591.855 154.954 574.916 147.338C533.501 128.716 497.758 139.078 459.836 130.7L359.314 61.3745C384.012 83.1208 401.07 95.793 420.32 116.142C432.163 128.883 441.978 136.009 457.063 146.645C470.67 153.175 488.259 159.123 488.259 159.123C488.259 159.123 539.787 163.994 558.278 166.749C577.072 173.096 578.728 179.788 586.701 191.013C565.962 196.813 531.241 199.332 531.241 199.332C531.241 199.332 452.074 209.771 445.971 213.197C439.867 216.623 386.404 233.944 378.032 243.701C369.66 253.458 334.946 283.586 297.614 298.468Z" fill="#31153B"/>
<path d="M227.334 371.112C227.334 371.112 238.995 365.421 248.876 373.827C248.876 373.827 245.343 359.911 259.027 352.613C259.027 352.613 267.075 363.342 262.157 373.678C262.157 373.678 272.672 368.29 281.136 375.385C281.136 375.385 279.172 386.47 264.603 386.96C264.603 386.96 273.953 397.98 270.242 408.826C270.242 408.826 260.079 407.45 253.289 396.847C253.289 396.847 249.878 407.09 238.979 408.139C238.979 408.139 232.164 394.661 244.572 386.017C244.573 386.019 229.138 387.17 227.334 371.112Z" fill="#FFDEF0"/>
<path d="M259.275 378.724L257.032 379.013L257.135 377.505C257.164 377.158 257.123 376.81 257.015 376.479C256.908 376.149 256.736 375.843 256.509 375.579C256.283 375.316 256.006 375.1 255.696 374.944C255.385 374.789 255.047 374.696 254.7 374.672C254.353 374.648 254.005 374.693 253.676 374.805C253.347 374.917 253.044 375.092 252.783 375.322C252.522 375.552 252.31 375.831 252.158 376.144C252.006 376.457 251.918 376.796 251.899 377.143L251.806 378.488L249.879 377.862C249.217 377.646 248.497 377.702 247.877 378.018C247.256 378.334 246.786 378.883 246.571 379.545C246.356 380.207 246.412 380.928 246.728 381.548C247.043 382.168 247.593 382.638 248.255 382.854L250.198 383.486L249.066 385.31C248.884 385.603 248.762 385.929 248.706 386.269C248.651 386.61 248.663 386.957 248.741 387.293C248.82 387.629 248.964 387.945 249.165 388.225C249.366 388.505 249.62 388.743 249.913 388.925C250.206 389.106 250.532 389.228 250.872 389.284C251.212 389.34 251.56 389.328 251.896 389.249C252.231 389.171 252.548 389.027 252.828 388.826C253.108 388.625 253.346 388.37 253.527 388.077L253.874 387.52L254.521 388.894C254.665 389.209 254.871 389.493 255.125 389.728C255.38 389.963 255.679 390.146 256.004 390.265C256.33 390.384 256.676 390.438 257.022 390.422C257.369 390.407 257.709 390.323 258.023 390.176C258.336 390.028 258.618 389.82 258.851 389.563C259.084 389.306 259.263 389.006 259.38 388.679C259.496 388.353 259.546 388.006 259.527 387.66C259.509 387.314 259.422 386.974 259.272 386.662L258.099 384.166L259.947 383.928C260.026 383.918 260.105 383.904 260.182 383.887C260.84 383.738 261.416 383.343 261.79 382.781C262.164 382.22 262.308 381.536 262.191 380.872C262.074 380.208 261.707 379.614 261.164 379.213C260.621 378.813 259.945 378.637 259.276 378.722L259.275 378.724Z" fill="#A75174"/>
<path d="M550.45 158.772C550.45 158.772 578.912 159.013 590.084 185.189C590.084 185.189 596.769 154.411 630.778 153.477C630.778 153.477 636.075 182.418 616.303 197.896C616.303 197.896 642.221 197.611 651.891 219.825C651.891 219.825 637.186 239.664 608.105 226.366C608.105 226.366 615.673 257.152 597.772 274.815C597.772 274.815 579.166 262.165 576.215 234.702C576.215 234.702 559.491 251.472 537.068 242.863C537.068 242.863 536.881 209.732 569.702 204.907C569.701 204.913 538.273 192.064 550.45 158.772Z" fill="#FFDEF0"/>
<path d="M605.705 204.982L601.018 203.354L602.698 200.494C603.093 199.842 603.354 199.117 603.467 198.364C603.579 197.61 603.541 196.841 603.354 196.102C603.167 195.363 602.835 194.668 602.378 194.058C601.921 193.449 601.347 192.936 600.69 192.549C600.032 192.163 599.305 191.911 598.55 191.808C597.795 191.705 597.026 191.753 596.29 191.949C595.553 192.145 594.863 192.486 594.259 192.951C593.655 193.416 593.149 193.996 592.771 194.658L591.272 197.209L588.104 194.092C587.015 193.021 585.546 192.427 584.018 192.439C582.491 192.452 581.032 193.071 579.961 194.159C578.89 195.248 578.295 196.717 578.308 198.245C578.32 199.772 578.939 201.231 580.028 202.302L583.224 205.446L579.216 207.92C578.572 208.317 578.014 208.838 577.571 209.451C577.129 210.064 576.811 210.758 576.637 211.494C576.463 212.23 576.436 212.993 576.557 213.74C576.678 214.486 576.944 215.201 577.342 215.845C577.739 216.488 578.259 217.047 578.872 217.49C579.486 217.932 580.18 218.249 580.916 218.423C581.652 218.597 582.415 218.625 583.161 218.504C583.908 218.383 584.623 218.116 585.266 217.719L586.493 216.964L586.416 220.295C586.392 221.055 586.518 221.813 586.787 222.524C587.057 223.235 587.465 223.886 587.988 224.439C588.51 224.991 589.137 225.435 589.832 225.744C590.527 226.053 591.277 226.221 592.037 226.239C592.798 226.257 593.554 226.123 594.263 225.847C594.972 225.571 595.618 225.157 596.166 224.629C596.714 224.102 597.152 223.47 597.454 222.773C597.757 222.075 597.918 221.324 597.929 220.563L598.07 214.516L601.93 215.856C602.097 215.914 602.266 215.964 602.433 216.005C603.87 216.359 605.388 216.145 606.671 215.409C607.955 214.674 608.906 213.472 609.327 212.054C609.749 210.635 609.608 209.109 608.934 207.792C608.261 206.475 607.106 205.467 605.709 204.979L605.705 204.982Z" fill="#A75174"/>
<path d="M423.553 230.186C423.553 230.186 440.875 222.381 454.942 235.447C454.942 235.447 450.418 214.546 470.774 204.465C470.774 204.465 482.05 220.883 474.377 235.98C474.377 235.98 490.01 228.561 502.062 239.597C502.062 239.597 498.676 255.974 477.341 255.876C477.341 255.876 490.509 272.8 484.579 288.725C484.579 288.725 469.774 286.101 460.332 269.942C460.332 269.942 454.867 284.985 438.875 285.927C438.875 285.927 429.529 265.491 448.081 253.336C448.082 253.34 425.449 254.176 423.553 230.186Z" fill="#FFDEF0"/>
<path d="M469.928 243.323L466.632 243.626L466.854 241.388C466.912 240.874 466.868 240.353 466.726 239.856C466.584 239.358 466.347 238.893 466.028 238.489C465.708 238.084 465.314 237.747 464.866 237.498C464.419 237.248 463.928 237.091 463.422 237.036C462.916 236.981 462.405 237.028 461.919 237.176C461.432 237.323 460.98 237.567 460.588 237.894C460.196 238.222 459.872 238.625 459.636 239.081C459.399 239.538 459.254 240.038 459.21 240.553L459.012 242.549L456.223 241.507C455.264 241.149 454.208 241.192 453.285 241.626C452.363 242.061 451.651 242.851 451.305 243.824C450.959 244.796 451.008 245.871 451.441 246.812C451.874 247.753 452.656 248.483 453.615 248.841L456.429 249.892L454.688 252.542C454.409 252.967 454.215 253.445 454.118 253.948C454.02 254.451 454.022 254.969 454.121 255.473C454.221 255.976 454.417 256.456 454.698 256.884C454.979 257.312 455.34 257.679 455.76 257.966C456.18 258.253 456.652 258.453 457.147 258.556C457.642 258.658 458.151 258.66 458.646 258.562C459.14 258.464 459.61 258.268 460.029 257.985C460.448 257.701 460.807 257.336 461.087 256.911L461.62 256.101L462.502 258.183C462.699 258.66 462.986 259.093 463.348 259.457C463.71 259.822 464.138 260.11 464.609 260.306C465.08 260.502 465.584 260.601 466.091 260.598C466.599 260.595 467.1 260.489 467.566 260.288C468.032 260.086 468.453 259.793 468.806 259.424C469.158 259.055 469.435 258.618 469.62 258.139C469.805 257.659 469.895 257.147 469.884 256.631C469.873 256.114 469.761 255.605 469.556 255.132L467.956 251.352L470.67 251.103C470.787 251.092 470.903 251.076 471.016 251.055C471.985 250.872 472.846 250.315 473.419 249.502C473.992 248.688 474.234 247.679 474.094 246.684C473.954 245.689 473.444 244.785 472.668 244.159C471.893 243.532 470.912 243.232 469.929 243.32L469.928 243.323Z" fill="#A75174"/>
<path d="M693.648 207.229C693.648 207.229 711.131 203.026 721.979 217.364C721.979 217.364 721.373 197.477 742.076 191.707C742.076 191.707 749.746 208.636 739.992 221.146C739.992 221.146 755.835 217.01 765.157 229.148C765.157 229.148 759.175 243.555 739.318 239.849C739.318 239.849 748.662 257.562 740.388 271.125C740.388 271.125 727.05 266.214 721.045 249.832C721.045 249.832 713.357 262.667 698.297 260.817C698.297 260.817 693.119 240.538 712.499 232.565C712.499 232.568 691.272 229.495 693.648 207.229Z" fill="#FFDEF0"/>
<path d="M734.579 227.108L731.457 226.826L732.05 224.816C732.192 224.356 732.241 223.873 732.195 223.393C732.149 222.914 732.008 222.449 731.78 222.024C731.553 221.6 731.243 221.225 730.87 220.921C730.496 220.617 730.066 220.39 729.604 220.254C729.142 220.117 728.658 220.074 728.179 220.126C727.701 220.179 727.237 220.326 726.816 220.558C726.394 220.791 726.023 221.105 725.724 221.483C725.425 221.86 725.204 222.293 725.073 222.757L724.544 224.549L722.126 223.123C721.295 222.633 720.303 222.493 719.369 222.734C718.435 222.975 717.635 223.578 717.145 224.409C716.655 225.239 716.515 226.231 716.756 227.165C716.997 228.099 717.599 228.9 718.43 229.39L720.87 230.828L718.791 232.957C718.457 233.299 718.194 233.703 718.017 234.147C717.839 234.59 717.751 235.064 717.757 235.542C717.763 236.02 717.863 236.491 718.051 236.93C718.239 237.37 718.512 237.767 718.853 238.101C719.195 238.435 719.599 238.698 720.043 238.875C720.486 239.053 720.961 239.141 721.438 239.135C721.916 239.129 722.388 239.029 722.827 238.841C723.266 238.653 723.664 238.38 723.997 238.039L724.634 237.388L725.096 239.442C725.197 239.912 725.39 240.357 725.664 240.751C725.938 241.146 726.287 241.483 726.692 241.741C727.097 242 727.549 242.176 728.022 242.26C728.496 242.343 728.981 242.331 729.45 242.226C729.918 242.121 730.362 241.923 730.754 241.646C731.146 241.368 731.479 241.016 731.734 240.608C731.989 240.201 732.161 239.747 732.24 239.273C732.319 238.799 732.303 238.315 732.193 237.847L731.356 234.118L733.927 234.35C734.038 234.36 734.149 234.365 734.258 234.365C735.192 234.362 736.09 233.999 736.764 233.352C737.439 232.705 737.838 231.823 737.88 230.889C737.921 229.955 737.602 229.041 736.987 228.337C736.373 227.632 735.511 227.191 734.581 227.105L734.579 227.108Z" fill="#A75174"/>
<path d="M637.349 83.26C637.349 83.26 668.931 74.8099 687.994 104.21C687.994 104.21 671.697 74.2346 718.186 49.1831C718.186 49.1831 739.568 79.4056 714.408 111.76C714.408 111.76 740.724 93.4137 769.549 115.475C769.549 115.475 763.469 138.817 727.08 142.677C727.08 142.677 742.728 165.939 731.057 189.488C731.057 189.488 701.214 194.76 692.136 151.455C692.136 151.455 669.671 179.256 636.14 165.033C636.14 165.033 635.513 136.853 673.14 126.02C673.149 126.014 639.441 127.821 637.349 83.26Z" fill="#F090CC"/>
<path d="M710.925 118.287C708.265 119.118 705.554 119.78 702.811 120.269C703.093 118.377 703.62 116.528 704.376 114.771C704.658 114.123 704.809 113.426 704.821 112.72C704.833 112.013 704.706 111.312 704.447 110.655C704.188 109.997 703.802 109.398 703.312 108.89C702.821 108.382 702.235 107.975 701.587 107.694C700.939 107.412 700.242 107.261 699.536 107.249C698.83 107.237 698.128 107.364 697.471 107.623C696.814 107.882 696.214 108.268 695.706 108.758C695.198 109.249 694.792 109.835 694.51 110.483C693.679 112.396 693.033 114.384 692.578 116.42C691.239 115.725 689.864 115.098 688.46 114.543C687.797 114.272 687.086 114.136 686.37 114.144C685.654 114.151 684.947 114.302 684.29 114.586C683.633 114.871 683.039 115.284 682.543 115.801C682.048 116.318 681.661 116.929 681.405 117.598C681.148 118.266 681.028 118.979 681.051 119.695C681.074 120.411 681.24 121.115 681.539 121.766C681.837 122.417 682.263 123.001 682.791 123.485C683.319 123.97 683.938 124.343 684.612 124.585C684.637 124.595 685.945 125.109 687.654 125.988C685.825 127.426 684.11 129.003 682.524 130.706C682.044 131.224 681.671 131.832 681.425 132.494C681.18 133.157 681.068 133.861 681.095 134.567C681.122 135.272 681.288 135.966 681.583 136.608C681.878 137.25 682.297 137.827 682.815 138.307C683.334 138.787 683.941 139.16 684.604 139.405C685.266 139.65 685.97 139.762 686.676 139.735C687.382 139.708 688.076 139.542 688.717 139.247C689.359 138.952 689.936 138.533 690.416 138.015C691.813 136.519 693.34 135.15 694.979 133.924C695.921 136.202 696.718 138.536 697.365 140.914C697.742 142.282 698.643 143.446 699.874 144.152C701.105 144.858 702.565 145.05 703.936 144.684C705.307 144.319 706.478 143.427 707.194 142.202C707.91 140.977 708.113 139.519 707.759 138.145C707.082 135.639 706.26 133.173 705.3 130.761C708.262 130.198 711.189 129.468 714.068 128.573C714.206 128.531 714.341 128.484 714.473 128.432C715.763 127.92 716.804 126.929 717.38 125.666C717.956 124.404 718.022 122.968 717.564 121.658C717.106 120.348 716.159 119.266 714.922 118.638C713.685 118.01 712.253 117.884 710.925 118.287V118.287Z" fill="#F45885"/>
<path d="M292.32 265.6C292.32 265.6 321.345 257.834 338.864 284.854C338.864 284.854 323.887 257.305 366.612 234.282C366.612 234.282 386.262 262.058 363.14 291.793C363.14 291.793 387.325 274.932 413.816 295.207C413.816 295.207 408.229 316.659 374.786 320.207C374.786 320.207 389.167 341.585 378.441 363.227C378.441 363.227 351.014 368.073 342.671 328.274C342.671 328.274 322.025 353.824 291.209 340.753C291.209 340.753 290.633 314.854 325.213 304.898C325.221 304.893 294.243 306.553 292.32 265.6Z" fill="#F090CC"/>
<path d="M359.939 297.791C357.494 298.555 355.003 299.163 352.481 299.613C352.741 297.874 353.225 296.175 353.92 294.56C354.179 293.964 354.318 293.324 354.329 292.675C354.34 292.026 354.223 291.381 353.985 290.777C353.747 290.173 353.393 289.622 352.942 289.155C352.491 288.688 351.952 288.314 351.357 288.056C350.761 287.797 350.121 287.658 349.472 287.647C348.823 287.636 348.178 287.752 347.574 287.99C346.97 288.228 346.419 288.583 345.952 289.034C345.485 289.485 345.112 290.024 344.853 290.619C344.089 292.377 343.495 294.205 343.078 296.076C341.846 295.436 340.583 294.86 339.292 294.35C338.683 294.101 338.03 293.977 337.372 293.984C336.714 293.99 336.064 294.129 335.46 294.39C334.856 294.652 334.31 295.031 333.855 295.507C333.4 295.982 333.044 296.543 332.808 297.158C332.573 297.772 332.462 298.428 332.484 299.085C332.505 299.743 332.657 300.39 332.932 300.988C333.206 301.586 333.597 302.124 334.082 302.569C334.567 303.014 335.136 303.357 335.756 303.579C335.779 303.589 336.981 304.061 338.552 304.869C336.871 306.19 335.294 307.64 333.837 309.204C333.396 309.681 333.053 310.239 332.828 310.848C332.602 311.457 332.499 312.104 332.524 312.753C332.549 313.401 332.701 314.039 332.973 314.629C333.244 315.218 333.629 315.749 334.105 316.19C334.581 316.631 335.14 316.974 335.748 317.199C336.357 317.425 337.004 317.528 337.653 317.503C338.302 317.478 338.939 317.326 339.529 317.054C340.119 316.783 340.649 316.398 341.09 315.922C342.374 314.547 343.777 313.289 345.284 312.163C346.149 314.255 346.882 316.401 347.477 318.586C347.823 319.844 348.651 320.913 349.782 321.562C350.913 322.211 352.255 322.387 353.515 322.051C354.775 321.716 355.851 320.896 356.51 319.77C357.168 318.644 357.355 317.304 357.029 316.042C356.406 313.738 355.652 311.472 354.769 309.255C357.491 308.738 360.181 308.067 362.827 307.244C362.954 307.206 363.078 307.163 363.2 307.115C364.385 306.644 365.342 305.733 365.871 304.573C366.401 303.413 366.461 302.093 366.04 300.889C365.619 299.685 364.749 298.691 363.612 298.114C362.475 297.536 361.159 297.421 359.939 297.791V297.791Z" fill="#F45885"/>
<path d="M328.108 46.9355C328.108 46.9355 355.38 39.6384 371.842 65.0266C371.842 65.0266 357.769 39.1417 397.914 17.5086C397.914 17.5086 416.378 43.607 394.651 71.5467C394.651 71.5467 417.376 55.7036 442.268 74.7547C442.268 74.7547 437.018 94.9112 405.595 98.2449C405.595 98.2449 419.107 118.333 409.029 138.667C409.029 138.667 383.258 143.22 375.419 105.825C375.419 105.825 356.02 129.832 327.064 117.55C327.064 117.55 326.523 93.2154 359.015 83.8609C359.022 83.8554 329.915 85.4158 328.108 46.9355Z" fill="#F090CC"/>
<path d="M391.644 77.1832C389.346 77.9006 387.006 78.4724 384.637 78.8951C384.881 77.2607 385.335 75.6647 385.989 74.1468C386.232 73.5874 386.362 72.9856 386.373 72.3757C386.383 71.7658 386.274 71.1599 386.05 70.5924C385.826 70.0249 385.493 69.507 385.069 69.0684C384.645 68.6297 384.139 68.2787 383.58 68.0356C383.021 67.7925 382.419 67.6619 381.809 67.6514C381.199 67.6409 380.593 67.7505 380.026 67.9742C379.458 68.1978 378.94 68.5311 378.502 68.9549C378.063 69.3787 377.712 69.8847 377.469 70.4441C376.751 72.0964 376.193 73.8133 375.801 75.5715C374.644 74.9705 373.457 74.4292 372.244 73.9498C371.672 73.7161 371.058 73.5991 370.44 73.6056C369.821 73.6121 369.211 73.742 368.643 73.9877C368.076 74.2335 367.563 74.5901 367.135 75.0366C366.707 75.4831 366.373 76.0106 366.152 76.588C365.93 77.1655 365.827 77.7813 365.847 78.3994C365.866 79.0175 366.01 79.6254 366.267 80.1874C366.525 80.7494 366.893 81.2543 367.349 81.6724C367.804 82.0904 368.339 82.4133 368.921 82.622C368.943 82.6308 370.073 83.0744 371.549 83.8334C369.969 85.0751 368.488 86.4371 367.118 87.9074C366.704 88.3549 366.381 88.8797 366.17 89.4518C365.958 90.0238 365.861 90.632 365.885 91.2415C365.908 91.851 366.051 92.4499 366.306 93.0041C366.561 93.5583 366.922 94.0568 367.37 94.4712C367.817 94.8857 368.342 95.208 368.914 95.4196C369.486 95.6313 370.094 95.7281 370.704 95.7048C371.313 95.6814 371.912 95.5382 372.467 95.2833C373.021 95.0285 373.519 94.6669 373.934 94.2194C375.14 92.9278 376.458 91.7456 377.874 90.6869C378.687 92.6534 379.375 94.6694 379.934 96.7229C380.259 97.9042 381.038 98.9092 382.101 99.519C383.164 100.129 384.424 100.294 385.608 99.9786C386.792 99.6631 387.803 98.8927 388.422 97.835C389.04 96.7773 389.216 95.5181 388.91 94.3316C388.325 92.1671 387.616 90.038 386.786 87.9548C389.344 87.4691 391.872 86.8384 394.358 86.0657C394.477 86.0299 394.593 85.9891 394.708 85.944C395.821 85.5015 396.721 84.6457 397.218 83.5556C397.716 82.4655 397.772 81.2253 397.377 80.0943C396.981 78.9632 396.164 78.0288 395.095 77.4863C394.027 76.9438 392.79 76.8352 391.644 77.1832V77.1832Z" fill="#F45885"/>
<path d="M782.619 104.945C784.809 113.599 790.304 126.998 803.779 132.292C803.779 132.292 790.561 135.196 784.353 154.194C784.044 155.17 783.944 156.2 784.06 157.218C784.175 158.235 784.504 159.216 785.024 160.098C785.544 160.979 786.245 161.741 787.079 162.335C787.913 162.928 788.863 163.338 789.867 163.54C798.938 165.41 814.842 166.099 828.429 153.26C830.039 159.858 833.297 165.94 837.897 170.937C842.498 175.934 848.29 179.683 854.732 181.834C856.549 182.451 858.535 182.326 860.261 181.487C861.986 180.648 863.31 179.162 863.946 177.352C866.756 169.239 868.749 154.409 853.768 140.951C853.768 140.951 872.642 142.748 884.876 129.341C885.6 128.539 886.136 127.586 886.445 126.551C886.754 125.516 886.828 124.425 886.662 123.358C886.497 122.291 886.095 121.274 885.486 120.381C884.878 119.489 884.078 118.743 883.145 118.199C876.138 114.142 863.491 109.765 846.079 115.491C849.284 109.66 851.029 103.14 851.166 96.4874C851.303 89.8349 849.827 83.2483 846.864 77.2905C846.411 76.3539 845.763 75.5249 844.963 74.8589C844.164 74.1929 843.231 73.7052 842.228 73.4285C841.225 73.1517 840.175 73.0922 839.147 73.254C838.119 73.4158 837.138 73.7952 836.268 74.3667C829.043 79.1886 818.831 89.4591 820.674 108.369C820.674 108.369 807.313 95.4984 789.612 95.8895C788.513 95.9055 787.431 96.1693 786.448 96.6613C785.464 97.1532 784.605 97.8607 783.933 98.7309C783.26 99.6012 782.793 100.612 782.566 101.688C782.338 102.763 782.357 103.877 782.619 104.945Z" fill="#FFDEF0"/>
<path d="M841.76 124.353C838.176 124.469 835.323 124.715 833.082 124.995C833.79 123.264 834.606 121.578 835.523 119.948C836.008 119.083 836.129 118.061 835.86 117.107C835.591 116.153 834.954 115.345 834.089 114.86C833.225 114.375 832.203 114.254 831.248 114.523C830.294 114.792 829.486 115.429 829.001 116.294C827.563 118.841 826.347 121.506 825.366 124.262L818.726 120.585C818.296 120.327 817.818 120.158 817.321 120.088C816.824 120.019 816.318 120.05 815.834 120.18C815.349 120.31 814.896 120.536 814.501 120.845C814.105 121.155 813.776 121.54 813.533 121.979C813.29 122.418 813.138 122.901 813.086 123.4C813.033 123.899 813.082 124.403 813.229 124.883C813.375 125.363 813.617 125.808 813.939 126.192C814.262 126.577 814.658 126.892 815.105 127.12L821.626 130.738L815.937 136.666C815.597 137.02 815.331 137.438 815.152 137.895C814.974 138.352 814.887 138.84 814.897 139.331C814.907 139.822 815.014 140.306 815.211 140.755C815.408 141.205 815.692 141.611 816.046 141.951C816.4 142.291 816.818 142.558 817.275 142.736C817.733 142.915 818.221 143.001 818.711 142.991C819.202 142.981 819.686 142.875 820.136 142.677C820.585 142.48 820.992 142.197 821.331 141.842L826.967 135.97C828.187 138.016 829.872 140.809 832.092 144.424C832.347 144.847 832.682 145.216 833.08 145.508C833.478 145.801 833.93 146.012 834.409 146.129C834.889 146.246 835.387 146.267 835.875 146.191C836.363 146.114 836.83 145.942 837.251 145.683C837.672 145.425 838.037 145.086 838.326 144.686C838.615 144.285 838.822 143.832 838.935 143.351C839.047 142.87 839.064 142.372 838.983 141.885C838.902 141.398 838.725 140.932 838.463 140.513C836.387 137.132 834.775 134.463 833.582 132.467C835.631 132.198 838.398 131.943 842.003 131.827C842.312 131.817 842.619 131.769 842.917 131.684C843.794 131.433 844.549 130.87 845.04 130.101C845.53 129.332 845.723 128.41 845.581 127.509C845.439 126.608 844.973 125.789 844.269 125.208C843.566 124.627 842.675 124.324 841.763 124.354L841.76 124.353Z" fill="#A75174"/>
<path d="M437.601 134.954C437.601 134.954 449.782 125.056 463.727 132.254C463.727 132.254 455.755 116.826 469.876 104.479C469.876 104.479 482.296 114.917 479.332 128.442C479.332 128.442 490.246 119.214 502.163 125.26C502.163 125.26 502.884 138.858 485.853 143.425C485.853 143.425 499.886 153.848 498.485 167.646C498.485 167.646 486.132 168.807 475.23 158.172C475.23 158.172 473.802 172.25 459.952 175.836C459.952 175.836 449.11 162.026 461.365 148.437C461.368 148.441 444.125 153.385 437.601 134.954Z" fill="#FFDEF0"/>
<path d="M482.208 135.678C481.845 134.969 481.214 134.435 480.456 134.191C479.698 133.947 478.874 134.014 478.165 134.378L474.285 136.37L473.68 133.523C473.515 132.744 473.046 132.063 472.378 131.629C471.71 131.195 470.897 131.044 470.118 131.21C469.339 131.376 468.657 131.844 468.223 132.512C467.789 133.18 467.639 133.993 467.804 134.772L468.404 137.595L464.251 137.339C463.858 137.315 463.463 137.369 463.09 137.497C462.717 137.626 462.373 137.826 462.078 138.087C461.782 138.349 461.541 138.666 461.368 139.02C461.195 139.375 461.094 139.76 461.07 140.153C461.046 140.547 461.099 140.942 461.228 141.315C461.356 141.688 461.557 142.032 461.818 142.327C462.079 142.623 462.396 142.864 462.751 143.037C463.105 143.21 463.49 143.311 463.884 143.335L468.055 143.592L466.691 147.609C466.564 147.982 466.512 148.377 466.537 148.771C466.563 149.164 466.666 149.549 466.841 149.903C467.015 150.257 467.257 150.573 467.554 150.833C467.85 151.093 468.195 151.292 468.569 151.419C468.942 151.546 469.337 151.598 469.731 151.572C470.124 151.546 470.509 151.443 470.863 151.269C471.217 151.095 471.533 150.852 471.793 150.556C472.053 150.259 472.252 149.914 472.379 149.541L473.348 146.686L475.292 148.87C475.554 149.165 475.872 149.405 476.227 149.577C476.582 149.749 476.967 149.85 477.361 149.873C477.754 149.896 478.149 149.841 478.522 149.712C478.894 149.582 479.238 149.381 479.532 149.118C479.827 148.856 480.067 148.539 480.239 148.184C480.411 147.829 480.512 147.443 480.535 147.049C480.558 146.656 480.503 146.261 480.374 145.889C480.244 145.516 480.043 145.172 479.781 144.878L476.985 141.735L480.908 139.721C481.617 139.357 482.152 138.727 482.396 137.969C482.639 137.211 482.572 136.387 482.208 135.678Z" fill="#A75174"/>
<path d="M240.006 311.031C238.957 311.031 237.919 310.824 236.95 310.422C235.982 310.021 235.102 309.432 234.362 308.689C233.981 308.324 233.645 307.914 233.361 307.468C233.065 307.036 232.816 306.573 232.62 306.087C232.419 305.61 232.265 305.114 232.162 304.606C232.059 304.086 232.004 303.556 232 303.025C232.001 301.842 232.264 300.673 232.771 299.604C233.277 298.534 234.015 297.591 234.93 296.84C235.845 296.09 236.915 295.552 238.063 295.265C239.211 294.978 240.408 294.948 241.569 295.179C242.084 295.281 242.587 295.436 243.07 295.642C243.556 295.835 244.019 296.083 244.449 296.38C244.895 296.664 245.306 297 245.672 297.381C246.786 298.502 247.544 299.927 247.849 301.478C248.154 303.029 247.994 304.635 247.388 306.094C246.782 307.554 245.758 308.802 244.444 309.68C243.131 310.559 241.586 311.029 240.006 311.031Z" fill="#F090CC"/>
</g>
<defs>
<linearGradient id="paint0_linear" x1="511.489" y1="0" x2="327.588" y2="928.916" gradientUnits="userSpaceOnUse">
<stop stop-color="#A6CEF1"/>
<stop offset="1" stop-color="#FBD5EA"/>
</linearGradient>
<linearGradient id="paint1_linear" x1="511.489" y1="0" x2="327.588" y2="928.916" gradientUnits="userSpaceOnUse">
<stop stop-color="#A6CEF1"/>
<stop offset="1" stop-color="#FCD4EA"/>
</linearGradient>
<linearGradient id="paint2_linear" x1="674.314" y1="547.27" x2="674.314" y2="833.709" gradientUnits="userSpaceOnUse">
<stop stop-color="#9FD2FF"/>
<stop offset="1" stop-color="#CDE4FF"/>
</linearGradient>
</defs>
</svg>
