<svg width="475" height="509" viewBox="0 0 475 509" fill="none" xmlns="http://www.w3.org/2000/svg">
<path d="M5.18248 473.58C5.18248 473.58 26.1734 491.219 50.5744 458.181C50.5731 458.184 29.6371 443.3 5.18248 473.58Z" fill="#FFD2E9"/>
<path d="M267.347 444.301C267.347 444.301 284.68 440.875 294.756 455.386C294.756 455.386 294.958 435.836 315.515 431C315.515 431 322.367 447.929 312.29 459.819C312.29 459.819 328.01 456.393 336.676 468.687C336.676 468.687 330.227 482.593 310.879 478.157C310.879 478.157 319.344 495.922 310.678 508.906C310.678 508.906 297.779 503.551 292.539 487.226C292.539 487.226 284.478 499.52 269.766 497.102C269.766 497.102 265.058 477.473 284.406 470.419C284.405 470.421 264.123 466.067 267.347 444.301Z" fill="#FFABD1"/>
<path d="M306.881 466.347L302.756 466.01L304.576 461.472C304.719 461.114 304.791 460.731 304.786 460.345C304.782 459.96 304.701 459.579 304.55 459.224C304.398 458.87 304.178 458.549 303.902 458.279C303.626 458.01 303.3 457.797 302.942 457.654C302.584 457.51 302.202 457.439 301.816 457.443C301.43 457.448 301.049 457.528 300.695 457.68C300.34 457.831 300.019 458.051 299.75 458.327C299.48 458.603 299.268 458.929 299.124 459.287L297.196 464.096C295.755 463.193 294.243 462.409 292.675 461.752C291.952 461.472 291.146 461.489 290.436 461.801C289.725 462.113 289.167 462.693 288.883 463.415C288.598 464.137 288.611 464.942 288.919 465.654C289.227 466.367 289.804 466.928 290.524 467.217C291.735 467.737 292.904 468.347 294.024 469.042L289.5 473.666C289.225 473.941 289.007 474.267 288.859 474.627C288.71 474.986 288.635 475.372 288.637 475.761C288.639 476.149 288.718 476.534 288.87 476.892C289.022 477.25 289.243 477.574 289.521 477.846C289.799 478.118 290.128 478.332 290.49 478.475C290.851 478.619 291.237 478.689 291.626 478.682C292.015 478.675 292.398 478.591 292.754 478.434C293.11 478.278 293.432 478.052 293.7 477.771L296.97 474.425C297.347 476.1 297.562 477.807 297.613 479.523C297.607 480.302 297.911 481.051 298.457 481.606C299.003 482.161 299.748 482.476 300.526 482.482H300.551C301.325 482.482 302.069 482.176 302.619 481.63C303.169 481.085 303.481 480.344 303.487 479.569C303.406 476.973 303.051 474.392 302.427 471.871L306.401 472.197C306.483 472.203 306.564 472.206 306.645 472.206C307.402 472.204 308.129 471.91 308.674 471.385C309.219 470.86 309.54 470.145 309.571 469.389C309.601 468.632 309.339 467.894 308.838 467.326C308.337 466.759 307.636 466.407 306.882 466.344L306.881 466.347Z" fill="#F45885"/>
<path d="M0.219356 323.4C0.219356 323.4 11.1649 321.236 17.5279 330.4C17.5279 330.4 17.6554 318.054 30.6369 315C30.6369 315 34.964 325.691 28.6004 333.199C28.6004 333.199 38.5275 331.036 44 338.799C44 338.799 39.9275 347.581 27.7095 344.779C27.7095 344.779 33.055 355.998 27.5824 364.197C27.5824 364.197 19.4369 360.815 16.1279 350.507C16.1279 350.507 11.0374 358.27 1.74684 356.743C1.74684 356.743 -1.22654 344.347 10.9915 339.893C10.991 339.894 -1.81667 337.145 0.219356 323.4Z" fill="#FFABD1"/>
<path d="M25.1851 337.321L22.5802 337.108L23.729 334.242C23.8196 334.016 23.8647 333.775 23.8619 333.531C23.8591 333.288 23.8084 333.047 23.7126 332.823C23.6168 332.599 23.4779 332.397 23.3037 332.226C23.1295 332.056 22.9235 331.922 22.6975 331.831C22.4715 331.741 22.2298 331.696 21.9863 331.698C21.7428 331.701 21.5022 331.752 21.2784 331.848C21.0545 331.943 20.8516 332.082 20.6815 332.257C20.5113 332.431 20.377 332.637 20.2865 332.863L19.0691 335.9C18.1591 335.33 17.2042 334.835 16.2139 334.419C15.757 334.243 15.2486 334.254 14.7998 334.45C14.351 334.647 13.9984 335.014 13.8189 335.47C13.6394 335.925 13.6477 336.434 13.842 336.884C14.0363 337.334 14.4007 337.688 14.8556 337.87C15.62 338.199 16.3587 338.584 17.0655 339.023L14.209 341.943C14.0351 342.117 13.8973 342.323 13.8038 342.55C13.7102 342.777 13.6626 343.02 13.6638 343.266C13.6651 343.511 13.715 343.754 13.8109 343.98C13.9067 344.206 14.0465 344.411 14.2221 344.583C14.3977 344.754 14.6056 344.889 14.8339 344.98C15.0621 345.071 15.306 345.115 15.5515 345.111C15.797 345.106 16.0392 345.053 16.264 344.954C16.4888 344.855 16.6918 344.713 16.8611 344.535L18.9263 342.422C19.1639 343.48 19.2999 344.558 19.3324 345.642C19.3286 346.133 19.5202 346.607 19.8652 346.957C20.2101 347.307 20.6802 347.506 21.1719 347.51H21.1872C21.6764 347.51 22.1458 347.317 22.4932 346.973C22.8405 346.628 23.0376 346.16 23.0415 345.671C22.9905 344.031 22.7661 342.402 22.3721 340.809L24.8819 341.015C24.9338 341.019 24.9848 341.021 25.0358 341.021C25.5137 341.02 25.9727 340.834 26.3169 340.503C26.6611 340.171 26.8641 339.719 26.8834 339.242C26.9027 338.764 26.7369 338.298 26.4206 337.94C26.1042 337.581 25.6618 337.359 25.1855 337.319L25.1851 337.321Z" fill="#F45885"/>
<path d="M103.893 26.4027C103.893 26.4027 122.084 22.377 133.589 36.8081C133.589 36.8081 132.701 16.9343 154.227 11.3721C154.227 11.3721 162.449 28.3624 152.431 40.7633C152.431 40.7633 168.911 36.7871 178.795 49.0107C178.795 49.0107 172.739 63.3454 151.969 59.4465C151.969 59.4465 161.948 77.2352 153.488 90.7038C153.488 90.7038 139.506 85.6661 133.029 69.2391C133.029 69.2391 124.4 82.9834 107.575 79.6809C107.575 79.6809 102.76 60.0226 122.886 52.2433C122.889 52.2483 101.7 48.6296 103.893 26.4027Z" fill="#FFDEF0"/>
<path d="M151.913 49.6484C151.874 48.737 151.46 47.8694 150.76 47.2364C150.06 46.6034 149.133 46.257 148.181 46.2732L142.971 46.362L143.746 43.1327C143.958 42.2486 143.793 41.3122 143.287 40.5294C142.78 39.7466 141.974 39.1817 141.046 38.9588C140.117 38.7359 139.143 38.8733 138.336 39.3408C137.529 39.8084 136.957 40.5677 136.745 41.4518L135.976 44.6545L131.6 42.2968C131.185 42.0734 130.73 41.9295 130.261 41.8732C129.792 41.817 129.318 41.8495 128.866 41.9689C128.414 42.0884 127.993 42.2925 127.627 42.5694C127.262 42.8464 126.958 43.1909 126.734 43.5832C126.509 43.9755 126.369 44.408 126.321 44.856C126.272 45.3039 126.317 45.7586 126.452 46.194C126.587 46.6294 126.809 47.0369 127.107 47.3935C127.404 47.75 127.771 48.0485 128.186 48.2719L132.581 50.6396L129.081 54.0784C128.755 54.3982 128.5 54.7776 128.33 55.195C128.16 55.6124 128.078 56.0596 128.09 56.5111C128.101 56.9626 128.205 57.4095 128.396 57.8264C128.586 58.2432 128.86 58.6218 129.201 58.9406C129.543 59.2594 129.945 59.512 130.385 59.6842C130.825 59.8563 131.294 59.9445 131.765 59.9438C132.237 59.9431 132.701 59.8535 133.133 59.6801C133.564 59.5067 133.953 59.2528 134.279 58.9331L136.766 56.4885L137.775 59.7135C137.911 60.1485 138.135 60.5556 138.434 60.9114C138.732 61.2672 139.1 61.5647 139.515 61.787C139.931 62.0093 140.386 62.1521 140.855 62.2071C141.325 62.2621 141.799 62.2284 142.25 62.1077C142.702 61.987 143.122 61.7819 143.487 61.5039C143.852 61.2259 144.155 60.8806 144.378 60.4876C144.601 60.0947 144.74 59.6618 144.787 59.2136C144.834 58.7655 144.788 58.3109 144.652 57.8759L143.201 53.2368L148.469 53.1468C149.421 53.1303 150.318 52.7526 150.964 52.0965C151.609 51.4405 151.951 50.5599 151.913 49.6484Z" fill="#F982AA"/>
<path d="M440.585 106.71C440.585 106.71 465.689 105.448 468.83 61.7192C468.831 61.7226 445.109 65.1187 440.585 106.71Z" fill="#F090CC"/>
</svg>
