<svg width="276" height="531" viewBox="0 0 276 531" fill="none" xmlns="http://www.w3.org/2000/svg">
<path d="M26.6848 519.588C26.6848 519.588 46.7307 535.332 71.8335 503.701C71.8321 503.704 51.7476 490.528 26.6848 519.588Z" fill="#F090CC"/>
<path d="M9.61607 162.984C9.61607 162.984 5.47468 179.51 15.3126 189.895C15.3126 189.895 24.3264 199.165 36.3348 195.017C36.3348 195.017 38.697 166.773 9.61607 162.984Z" fill="#FFD2E9"/>
<path d="M236.331 90.3343C236.331 90.3343 237.899 113.162 272.44 109.204C272.437 109.205 269.218 87.98 236.331 90.3343Z" fill="#F090CC"/>
<path d="M69.6129 15.4921C69.6129 15.4921 90.2246 13.9853 99.8546 32.2689C99.8546 32.2689 102.876 9.60041 127.432 6.91599C127.432 6.91599 132.974 27.5474 119.58 39.9154C119.58 39.9154 138.319 38.1787 146.628 53.6873C146.628 53.6873 137.158 68.9129 115.327 61.0044C115.327 61.0044 122.623 82.8365 110.71 96.6756C110.71 96.6756 96.4983 88.6193 92.7417 68.92C92.7417 68.92 81.6303 82.0433 64.8943 77.1386C64.8943 77.1386 62.2259 53.6781 85.6943 48.2465C85.6932 48.249 62.7668 40.3029 69.6129 15.4921Z" fill="#FFABD1"/>
<path d="M109.67 43.9975L105.053 43.6195L107.089 38.5391C107.25 38.1384 107.33 37.71 107.325 37.2783C107.32 36.8467 107.23 36.4202 107.06 36.0233C106.89 35.6265 106.644 35.2669 106.335 34.9652C106.026 34.6635 105.661 34.4255 105.261 34.265C104.86 34.1044 104.431 34.0243 104 34.0293C103.568 34.0343 103.142 34.1242 102.745 34.294C102.348 34.4638 101.988 34.7101 101.687 35.0188C101.385 35.3276 101.147 35.6927 100.986 36.0935L98.8284 41.477C97.2153 40.4664 95.5226 39.5889 93.767 38.853C92.9569 38.5394 92.0557 38.5591 91.2601 38.9079C90.4645 39.2567 89.8394 39.9062 89.5212 40.7145C89.2031 41.5228 89.2178 42.4242 89.5622 43.2216C89.9066 44.0191 90.5526 44.6479 91.3591 44.9705C92.7141 45.5527 94.0236 46.2356 95.2766 47.0135L90.2127 52.1908C89.9045 52.4981 89.6603 52.8636 89.4944 53.266C89.3285 53.6684 89.2442 54.0998 89.2464 54.5351C89.2485 54.9704 89.3371 55.4009 89.507 55.8017C89.6769 56.2024 89.9247 56.5655 90.236 56.8697C90.5473 57.1739 90.9159 57.4133 91.3205 57.5739C91.7251 57.7346 92.1575 57.8132 92.5927 57.8054C93.0279 57.7976 93.4573 57.7034 93.8558 57.5283C94.2543 57.3532 94.6141 57.1007 94.9142 56.7854L98.5753 53.0397C98.9964 54.9149 99.2375 56.826 99.2952 58.7471C99.2884 59.6187 99.6282 60.4574 100.24 61.0786C100.851 61.6999 101.684 62.0528 102.556 62.0597H102.583C103.45 62.0597 104.283 61.717 104.898 61.1062C105.514 60.4954 105.863 59.6661 105.87 58.7988C105.78 55.8923 105.382 53.0035 104.684 50.1807L109.133 50.5455C109.225 50.5529 109.315 50.5562 109.406 50.5562C110.253 50.5539 111.067 50.2245 111.677 49.6368C112.287 49.0491 112.647 48.2484 112.681 47.4019C112.715 46.5554 112.421 45.7283 111.861 45.0932C111.3 44.4582 110.515 44.0641 109.671 43.9934L109.67 43.9975Z" fill="#F45885"/>
</svg>
