<svg width="370" height="447" viewBox="0 0 370 447" fill="none" xmlns="http://www.w3.org/2000/svg">
<rect x="47.401" y="142.626" width="28.7791" height="303.874" fill="#132B47"/>
<rect x="292.87" y="142.203" width="30.472" height="303.874" fill="#152B43"/>
<rect x="47.401" y="86.7607" width="19.4682" height="55.8654" fill="#182C46"/>
<rect x="303.874" y="86.7607" width="19.4682" height="62.637" fill="#152A46"/>
<path d="M17.3523 135.854V106.229C148.251 141.822 221.646 145.278 352.545 106.652V135.854C224.38 164.458 151.133 165.933 17.3523 135.854Z" fill="#254157"/>
<path d="M17.7755 84.2215V54.5959C148.674 90.1896 222.07 93.645 352.968 55.0192V84.2215C224.803 112.825 151.556 114.3 17.7755 84.2215Z" fill="#27415A"/>
<path d="M0 51.6332V0C146.541 51.537 227.651 58.3514 369.897 0V51.6332C228.392 94.4382 147.273 92.6405 0 51.6332Z" fill="#152A45"/>
</svg>
